<svg width="19" height="18" viewBox="0 0 19 18" fill="none" xmlns="http://www.w3.org/2000/svg">
<rect width="19" height="18" fill="#1E1E1E"/>
<g id="Desktop">
<g id="Desktop_2" clip-path="url(#clip0_0_1)">
<rect width="1280" height="5605" transform="translate(-536 -196)" fill="white"/>
<g id="Hero">
<g id="headline-2">
<rect x="-7.5" y="-7.5" width="223" height="33" rx="16.5" fill="#E9F9F5"/>
<rect x="-7.5" y="-7.5" width="223" height="33" rx="16.5" stroke="#6DD5B9"/>
<g id="icon/AI Generate A lined">
<g id="Vector">
<path d="M15.0417 16.5C15.0417 16.9142 14.6872 17.25 14.25 17.25C13.8128 17.25 13.4584 16.9142 13.4584 16.5C13.4584 16.0858 13.8128 15.75 14.25 15.75C14.6872 15.75 15.0417 16.0858 15.0417 16.5Z" fill="#146A53"/>
<path d="M18.2084 13.5C18.2084 13.9142 17.8539 14.25 17.4167 14.25C16.9795 14.25 16.625 13.9142 16.625 13.5C16.625 13.0858 16.9795 12.75 17.4167 12.75C17.8539 12.75 18.2084 13.0858 18.2084 13.5Z" fill="#146A53"/>
<path d="M2.37502 4.5C2.37502 4.91421 2.02058 5.25 1.58335 5.25C1.14613 5.25 0.791687 4.91421 0.791687 4.5C0.791687 4.08579 1.14613 3.75 1.58335 3.75C2.02058 3.75 2.37502 4.08579 2.37502 4.5Z" fill="#146A53"/>
<path d="M5.54169 1.5C5.54169 1.91421 5.18725 2.25 4.75002 2.25C4.31279 2.25 3.95835 1.91421 3.95835 1.5C3.95835 1.08579 4.31279 0.75 4.75002 0.75C5.18725 0.75 5.54169 1.08579 5.54169 1.5Z" fill="#146A53"/>
<path fill-rule="evenodd" clip-rule="evenodd" d="M9.50002 4.86219L8.98369 6.87943C8.77731 7.68576 8.11277 8.31533 7.26164 8.51085L5.13233 9L7.26164 9.48915C8.11277 9.68468 8.77731 10.3142 8.98369 11.1206L9.50002 13.1378L10.0163 11.1206C10.2227 10.3142 10.8873 9.68468 11.7384 9.48915L13.8677 9L11.7384 8.51085C10.8873 8.31533 10.2227 7.68576 10.0163 6.87943L9.50002 4.86219ZM10.5333 3.76992C10.2706 2.74336 8.72946 2.74336 8.4667 3.76992L7.74371 6.59458C7.6499 6.96109 7.34784 7.24726 6.96096 7.33613L3.97938 8.02107C2.89579 8.27 2.89579 9.73 3.97938 9.97893L6.96096 10.6639C7.34784 10.7527 7.6499 11.0389 7.74372 11.4054L8.4667 14.2301C8.72946 15.2566 10.2706 15.2566 10.5333 14.2301L11.2563 11.4054C11.3501 11.0389 11.6522 10.7527 12.0391 10.6639L15.0207 9.97893C16.1043 9.73 16.1043 8.27 15.0207 8.02107L12.0391 7.33613C11.6522 7.24726 11.3501 6.96109 11.2563 6.59458L10.5333 3.76992Z" fill="#146A53"/>
<path fill-rule="evenodd" clip-rule="evenodd" d="M7.12868 16.736C6.99108 17.0853 6.58068 17.2627 6.21202 17.1324C3.82401 16.288 1.90582 14.5351 0.92606 12.3171C0.77415 11.9732 0.94527 11.5778 1.30827 11.4339C1.67127 11.29 2.08868 11.4521 2.24059 11.796C3.06868 13.6706 4.69186 15.1539 6.7103 15.8676C7.07897 15.998 7.26628 16.3868 7.12868 16.736Z" fill="#146A53"/>
<path fill-rule="evenodd" clip-rule="evenodd" d="M17.6663 6.76557C17.2978 6.8962 16.8872 6.71905 16.7493 6.36989C15.99 4.44715 14.406 2.90304 12.4049 2.12438C12.0409 1.98274 11.867 1.58838 12.0165 1.24354C12.166 0.898703 12.5823 0.733974 12.9463 0.875608C15.313 1.7965 17.1852 3.62098 18.084 5.89685C18.2219 6.24601 18.0349 6.63495 17.6663 6.76557Z" fill="#146A53"/>
</g>
</g>
</g>
</g>
</g>
</g>
<defs>
<clipPath id="clip0_0_1">
<rect width="1280" height="5605" fill="white" transform="translate(-536 -196)"/>
</clipPath>
</defs>
</svg>
