<svg width="644" height="349" viewBox="0 0 644 349" fill="none" xmlns="http://www.w3.org/2000/svg">
<g clip-path="url(#clip0_223_84019)">
<g clip-path="url(#clip1_223_84019)">
<rect width="424.8" height="298.536" transform="translate(107.8 38.7744)" fill="#6099F7"/>
<path fill-rule="evenodd" clip-rule="evenodd" d="M-311.227 361.681L-311.227 484.006H-309.844L-309.844 361.681H-232.131V484.006H-230.748V361.681H-153.035V484.006H-151.652V361.681H-73.9398V484.006H-72.5565V361.681H3.95816V484.006H5.34149V361.681H83.0537V484.006H84.437V361.681H162.149V484.006H163.533V361.681H241.245V484.006H242.629V361.681H319.143V484.006H320.526V361.681H398.239V484.006H399.622V361.681H477.335V484.006H478.718V361.681H555.232V484.006H556.615V361.681H634.328V484.006H635.711V361.681H713.423V484.006H714.807V361.681H792.519V484.006H793.902V361.681H870.417V484.006H871.8V361.681H949.512V484.006H950.896V361.681H1059.77V360.298H950.896V282.263H1059.77V280.88H950.896V202.846H1059.77V201.463H950.896V123.429H1059.77V122.046H950.896V44.0115H1059.77V42.6282H950.896V-35.4058H1059.77V-36.7891H950.896V-114.823H1059.77V-116.206H950.896V-194.241H1059.77V-195.624H950.896V-308.15H949.512V-195.624H871.8V-308.15H870.417V-195.624H793.902V-308.15H792.519V-195.624H714.807V-308.15H713.423V-195.624H635.711V-308.15H634.328V-195.624H556.615V-308.15H555.232V-195.624H478.718V-308.15H477.335V-195.624H399.622V-308.15H398.239V-195.624H320.526V-308.15H319.143V-195.624H242.629V-308.15H241.245V-195.624H163.533V-308.15H162.149V-195.624H84.4371V-308.15H83.0537V-195.624H5.34152V-308.15H3.95819V-195.624H-72.5564V-308.15H-73.9398V-195.624H-151.652V-308.15H-153.035V-195.624H-230.748V-308.15H-232.131V-195.624H-309.844L-309.844 -308.15H-311.227L-311.227 -195.624H-420.283V-194.241H-311.227V-116.206H-420.283V-114.823H-311.227L-311.227 -36.7891H-420.283V-35.4058H-311.227V42.6282H-420.283V44.0115H-311.227L-311.227 122.046H-420.283V123.429H-311.227V201.463H-420.283V202.846H-311.227L-311.227 280.88H-420.283V282.263H-311.227V360.298H-420.283V361.681H-311.227ZM949.512 -194.241H871.8V-116.206H949.512V-194.241ZM949.512 -114.823H871.8V-36.7891H949.512V-114.823ZM949.512 -35.4058H871.8V42.6282H949.512V-35.4058ZM949.512 44.0115H871.8V122.046H949.512V44.0115ZM949.512 123.429H871.8V201.463H949.512V123.429ZM949.512 202.846H871.8V280.88H949.512V202.846ZM949.512 282.263H871.8V360.298H949.512V282.263ZM870.417 282.263V360.298H793.902V282.263H870.417ZM870.417 202.846V280.88H793.902V202.846H870.417ZM870.417 123.429V201.463H793.902V123.429H870.417ZM870.417 44.0115V122.046H793.902V44.0115H870.417ZM870.417 -35.4058V42.6282H793.902V-35.4058H870.417ZM870.417 -114.823V-36.7891H793.902V-114.823H870.417ZM870.417 -194.241V-116.206H793.902V-194.241H870.417ZM792.519 -194.241H714.807V-116.206H792.519V-194.241ZM792.519 -114.823H714.807V-36.7891H792.519V-114.823ZM792.519 -35.4058H714.807V42.6282H792.519V-35.4058ZM792.519 44.0115H714.807V122.046H792.519V44.0115ZM792.519 123.429H714.807V201.463H792.519V123.429ZM792.519 202.846H714.807V280.88H792.519V202.846ZM792.519 282.263H714.807V360.298H792.519V282.263ZM713.423 282.263V360.298H635.711V282.263H713.423ZM713.423 202.846V280.88H635.711V202.846H713.423ZM713.423 123.429V201.463H635.711V123.429H713.423ZM713.423 44.0115V122.046H635.711V44.0115H713.423ZM713.423 -35.4058V42.6282H635.711V-35.4058H713.423ZM713.423 -114.823V-36.7891H635.711V-114.823H713.423ZM713.423 -194.241V-116.206H635.711V-194.241H713.423ZM634.328 -194.241H556.615V-116.206H634.328V-194.241ZM634.328 -114.823H556.615V-36.7891H634.328V-114.823ZM634.328 -35.4058H556.615V42.6282H634.328V-35.4058ZM634.328 44.0115H556.615L556.615 122.046H634.328V44.0115ZM634.328 123.429H556.615V201.463H634.328V123.429ZM634.328 202.846H556.615V280.88H634.328V202.846ZM634.328 282.263H556.615V360.298H634.328V282.263ZM555.232 282.263V360.298H478.718V282.263H555.232ZM555.232 202.846V280.88H478.718V202.846H555.232ZM555.232 123.429V201.463H478.718V123.429H555.232ZM555.232 44.0115L555.232 122.046H478.718L478.718 44.0115H555.232ZM555.232 -35.4058V42.6282H478.718V-35.4058H555.232ZM555.232 -114.823V-36.7891H478.718V-114.823H555.232ZM555.232 -194.241V-116.206H478.718V-194.241H555.232ZM477.335 -194.241H399.622V-116.206H477.335V-194.241ZM477.335 -114.823H399.622V-36.7891H477.335V-114.823ZM477.335 -35.4058H399.622V42.6282H477.335V-35.4058ZM477.335 44.0115H399.622L399.622 122.046H477.335L477.335 44.0115ZM477.335 123.429H399.622V201.463H477.335V123.429ZM477.335 202.846H399.622V280.88H477.335V202.846ZM477.335 282.263H399.622V360.298H477.335V282.263ZM398.239 282.263V360.298H320.526V282.263H398.239ZM398.239 202.846V280.88H320.526V202.846H398.239ZM398.239 123.429V201.463H320.526V123.429H398.239ZM398.239 44.0115L398.239 122.046H320.526L320.526 44.0115H398.239ZM398.239 -35.4058V42.6282H320.526V-35.4058H398.239ZM398.239 -114.823V-36.7891H320.526V-114.823H398.239ZM398.239 -194.241V-116.206H320.526V-194.241H398.239ZM319.143 -194.241H242.629V-116.206H319.143V-194.241ZM319.143 -114.823H242.629V-36.7891H319.143V-114.823ZM319.143 -35.4058H242.629V42.6282H319.143V-35.4058ZM319.143 44.0115H242.629L242.629 122.046H319.143L319.143 44.0115ZM319.143 123.429H242.629V201.463H319.143V123.429ZM319.143 202.846H242.629V280.88H319.143V202.846ZM319.143 282.263H242.629V360.298H319.143V282.263ZM241.245 282.263V360.298H163.533V282.263H241.245ZM241.245 202.846V280.88H163.533V202.846H241.245ZM241.245 123.429V201.463H163.533V123.429H241.245ZM241.245 44.0115L241.245 122.046H163.533L163.533 44.0115H241.245ZM241.245 -35.4058V42.6282H163.533V-35.4058H241.245ZM241.245 -114.823V-36.7891H163.533V-114.823H241.245ZM241.245 -194.241V-116.206H163.533V-194.241H241.245ZM162.149 -194.241H84.4371V-116.206H162.149V-194.241ZM162.149 -114.823H84.4371V-36.7891H162.149V-114.823ZM162.149 -35.4058H84.4371V42.6282H162.149V-35.4058ZM162.149 44.0115H84.4371L84.437 122.046H162.149L162.149 44.0115ZM162.149 123.429H84.437V201.463H162.149V123.429ZM162.149 202.846H84.437V280.88H162.149V202.846ZM162.149 282.263H84.437V360.298H162.149V282.263ZM83.0537 282.263V360.298H5.34149V282.263H83.0537ZM83.0537 202.846V280.88H5.34149V202.846H83.0537ZM83.0537 123.429V201.463H5.34149V123.429H83.0537ZM83.0537 44.0115L83.0537 122.046H5.34149L5.34152 44.0115H83.0537ZM83.0537 -35.4058V42.6282H5.34152V-35.4058H83.0537ZM83.0537 -114.823V-36.7891H5.34152V-114.823H83.0537ZM83.0537 -194.241V-116.206H5.34152V-194.241H83.0537ZM3.95819 -194.241H-72.5564V-116.206H3.95819V-194.241ZM3.95819 -114.823H-72.5564V-36.7891H3.95819V-114.823ZM3.95819 -35.4058H-72.5564V42.6282H3.95819V-35.4058ZM3.95819 44.0115H-72.5564L-72.5565 122.046H3.95816L3.95819 44.0115ZM3.95816 123.429H-72.5565V201.463H3.95816V123.429ZM3.95816 202.846H-72.5565V280.88H3.95816V202.846ZM3.95816 282.263H-72.5565V360.298H3.95816V282.263ZM-73.9398 282.263V360.298H-151.652L-151.652 282.263H-73.9398ZM-73.9398 202.846V280.88H-151.652V202.846H-73.9398ZM-73.9398 123.429V201.463H-151.652V123.429H-73.9398ZM-73.9398 44.0115L-73.9398 122.046H-151.652V44.0115H-73.9398ZM-73.9398 -35.4058V42.6282H-151.652V-35.4058H-73.9398ZM-73.9398 -114.823V-36.7891H-151.652L-151.652 -114.823H-73.9398ZM-73.9398 -194.241V-116.206H-151.652V-194.241H-73.9398ZM-153.035 -194.241H-230.748V-116.206H-153.035L-153.035 -194.241ZM-153.035 -114.823H-230.748L-230.748 -36.7891H-153.035V-114.823ZM-153.035 -35.4058H-230.748V42.6282H-153.035V-35.4058ZM-153.035 44.0115H-230.748V122.046H-153.035L-153.035 44.0115ZM-153.035 123.429H-230.748V201.463H-153.035V123.429ZM-153.035 202.846H-230.748V280.88H-153.035V202.846ZM-153.035 282.263H-230.748L-230.748 360.298H-153.035L-153.035 282.263ZM-232.131 282.263L-232.131 360.298H-309.844V282.263H-232.131ZM-232.131 202.846V280.88H-309.844L-309.844 202.846H-232.131ZM-232.131 123.429V201.463H-309.844V123.429H-232.131ZM-232.131 44.0115L-232.131 122.046H-309.844L-309.844 44.0115H-232.131ZM-232.131 -35.4058V42.6282H-309.844V-35.4058H-232.131ZM-232.131 -114.823V-36.7891H-309.844L-309.844 -114.823H-232.131ZM-232.131 -194.241L-232.131 -116.206H-309.844V-194.241H-232.131Z" fill="url(#paint0_radial_223_84019)"/>
<g style="mix-blend-mode:screen" opacity="0.2">
<circle cx="291.275" cy="188.299" r="64.1583" fill="white" fill-opacity="0.4"/>
</g>
<ellipse opacity="0.2" cx="290.251" cy="187.083" rx="46.6875" ry="47.0333" fill="white" fill-opacity="0.6"/>
<circle cx="290.129" cy="187.154" r="9.16547" fill="white" fill-opacity="0.6"/>
<g style="mix-blend-mode:screen" opacity="0.2">
<circle cx="364.412" cy="107.195" r="19.0208" fill="white" fill-opacity="0.4"/>
</g>
<circle opacity="0.2" cx="363.98" cy="106.763" r="12.1042" fill="white" fill-opacity="0.6"/>
<circle cx="363.98" cy="106.763" r="6.05208" fill="white" fill-opacity="0.6"/>
<g style="mix-blend-mode:screen" opacity="0.2">
<circle cx="215.704" cy="297.404" r="44.6125" fill="white" fill-opacity="0.4"/>
</g>
<circle opacity="0.2" cx="214.846" cy="296.546" r="24.0221" fill="white" fill-opacity="0.6"/>
<circle cx="214.846" cy="296.546" r="12.0111" fill="white" fill-opacity="0.6"/>
<g style="mix-blend-mode:color-burn">
<rect width="424.8" height="298.536" transform="translate(107.8 38.7744)" fill="#387FF5" fill-opacity="0.1"/>
</g>
</g>
</g>
<g filter="url(#filter0_dddd_223_84019)">
<path d="M381.4 143.393C381.4 136.765 386.772 131.393 393.4 131.393H571C577.627 131.393 583 136.765 583 143.393V256.072C583 262.699 577.627 268.072 571 268.072H393.4C386.772 268.072 381.4 262.699 381.4 256.072V143.393Z" fill="white"/>
<path d="M393.4 131.893H571C577.351 131.893 582.5 137.041 582.5 143.393V256.072C582.5 262.423 577.351 267.572 571 267.572H393.4C387.049 267.572 381.9 262.423 381.9 256.072V143.393C381.9 137.041 387.049 131.893 393.4 131.893Z" stroke="#ECEEF4"/>
<path d="M534.032 160.794V154.488H535.478L535.606 155.556C535.802 155.183 536.084 154.886 536.451 154.666C536.826 154.446 537.266 154.335 537.769 154.335C538.554 154.335 539.165 154.581 539.6 155.073C540.035 155.565 540.253 156.285 540.253 157.234V160.794H538.614V157.387C538.614 156.844 538.503 156.429 538.281 156.141C538.059 155.853 537.714 155.709 537.245 155.709C536.784 155.709 536.404 155.87 536.105 156.192C535.815 156.514 535.67 156.963 535.67 157.539V160.794H534.032Z" fill="#4B5162"/>
<path d="M525.011 160.795L523.155 154.488H524.78L525.881 159.027L527.161 154.488H528.979L530.259 159.027L531.372 154.488H532.998L531.129 160.795H529.427L528.07 156.078L526.713 160.795H525.011Z" fill="#4B5162"/>
<path d="M519.278 160.947C518.664 160.947 518.109 160.807 517.614 160.527C517.128 160.248 516.739 159.862 516.449 159.37C516.168 158.87 516.027 158.294 516.027 157.641C516.027 156.989 516.172 156.416 516.462 155.925C516.752 155.425 517.14 155.035 517.627 154.755C518.122 154.475 518.676 154.335 519.291 154.335C519.897 154.335 520.443 154.475 520.929 154.755C521.424 155.035 521.812 155.425 522.094 155.925C522.384 156.416 522.529 156.989 522.529 157.641C522.529 158.294 522.384 158.87 522.094 159.37C521.812 159.862 521.424 160.248 520.929 160.527C520.434 160.807 519.884 160.947 519.278 160.947ZM519.278 159.536C519.705 159.536 520.076 159.379 520.392 159.065C520.707 158.743 520.865 158.268 520.865 157.641C520.865 157.014 520.707 156.544 520.392 156.23C520.076 155.908 519.709 155.747 519.291 155.747C518.856 155.747 518.48 155.908 518.164 156.23C517.857 156.544 517.704 157.014 517.704 157.641C517.704 158.268 517.857 158.743 518.164 159.065C518.48 159.379 518.851 159.536 519.278 159.536Z" fill="#4B5162"/>
<path d="M510.8 160.947C510.203 160.947 509.67 160.803 509.2 160.515C508.731 160.227 508.36 159.832 508.087 159.332C507.814 158.832 507.677 158.264 507.677 157.629C507.677 156.993 507.814 156.429 508.087 155.938C508.36 155.437 508.731 155.048 509.2 154.768C509.67 154.48 510.203 154.336 510.8 154.336C511.278 154.336 511.696 154.425 512.055 154.603C512.413 154.781 512.703 155.031 512.925 155.353V151.64H514.564V160.794H513.104L512.925 159.892C512.72 160.171 512.447 160.417 512.106 160.629C511.773 160.841 511.338 160.947 510.8 160.947ZM511.146 159.523C511.675 159.523 512.106 159.349 512.439 159.002C512.78 158.646 512.951 158.192 512.951 157.641C512.951 157.09 512.78 156.641 512.439 156.294C512.106 155.938 511.675 155.76 511.146 155.76C510.626 155.76 510.195 155.933 509.853 156.281C509.512 156.628 509.341 157.078 509.341 157.629C509.341 158.18 509.512 158.633 509.853 158.989C510.195 159.345 510.626 159.523 511.146 159.523Z" fill="#4B5162"/>
<path d="M501.132 160.794V151.64H502.77V157.044L505.023 154.488H506.969L504.37 157.362L507.391 160.794H505.343L502.77 157.629V160.794H501.132Z" fill="#4B5162"/>
<path d="M495.933 160.947C495.387 160.947 494.939 160.862 494.589 160.693C494.239 160.515 493.979 160.282 493.808 159.993C493.638 159.705 493.552 159.387 493.552 159.04C493.552 158.455 493.783 157.98 494.243 157.616C494.704 157.251 495.395 157.069 496.317 157.069H497.93V156.916C497.93 156.484 497.806 156.166 497.559 155.963C497.311 155.759 497.004 155.658 496.637 155.658C496.304 155.658 496.014 155.738 495.767 155.899C495.519 156.052 495.366 156.281 495.306 156.586H493.706C493.749 156.128 493.902 155.73 494.167 155.391C494.44 155.052 494.79 154.793 495.216 154.615C495.643 154.429 496.121 154.335 496.65 154.335C497.554 154.335 498.267 154.56 498.787 155.009C499.308 155.459 499.568 156.094 499.568 156.916V160.794H498.173L498.019 159.777C497.832 160.116 497.567 160.396 497.226 160.616C496.893 160.837 496.462 160.947 495.933 160.947ZM496.304 159.675C496.774 159.675 497.136 159.523 497.392 159.218C497.657 158.913 497.823 158.535 497.891 158.086H496.496C496.061 158.086 495.75 158.167 495.562 158.328C495.374 158.48 495.28 158.671 495.28 158.9C495.28 159.146 495.374 159.336 495.562 159.472C495.75 159.608 495.997 159.675 496.304 159.675Z" fill="#4B5162"/>
<path d="M489.179 160.947C488.539 160.947 487.972 160.811 487.477 160.54C486.982 160.269 486.594 159.887 486.312 159.396C486.03 158.904 485.89 158.336 485.89 157.692C485.89 157.039 486.026 156.459 486.299 155.95C486.581 155.442 486.965 155.047 487.451 154.768C487.946 154.48 488.526 154.335 489.192 154.335C489.815 154.335 490.365 154.471 490.843 154.742C491.321 155.014 491.692 155.387 491.957 155.861C492.23 156.327 492.366 156.849 492.366 157.425C492.366 157.518 492.362 157.616 492.354 157.717C492.354 157.819 492.349 157.925 492.341 158.035H487.515C487.549 158.527 487.72 158.913 488.027 159.192C488.343 159.472 488.723 159.612 489.166 159.612C489.499 159.612 489.777 159.54 489.998 159.396C490.229 159.243 490.4 159.048 490.51 158.811H492.174C492.055 159.209 491.854 159.574 491.573 159.904C491.3 160.226 490.958 160.481 490.549 160.667C490.148 160.854 489.691 160.947 489.179 160.947ZM489.192 155.658C488.791 155.658 488.437 155.772 488.13 156.001C487.822 156.221 487.626 156.56 487.541 157.018H490.702C490.677 156.603 490.523 156.272 490.242 156.026C489.96 155.781 489.61 155.658 489.192 155.658Z" fill="#4B5162"/>
<path d="M481.132 160.794V154.488H482.591L482.745 155.67C482.975 155.264 483.287 154.941 483.679 154.704C484.08 154.458 484.549 154.335 485.087 154.335V156.052H484.626C484.268 156.052 483.948 156.107 483.666 156.217C483.385 156.327 483.163 156.518 483.001 156.789C482.847 157.061 482.77 157.438 482.77 157.921V160.794H481.132Z" fill="#4B5162"/>
<path d="M473.095 160.795V151.895H476.692C477.622 151.895 478.33 152.111 478.817 152.543C479.312 152.967 479.559 153.513 479.559 154.183C479.559 154.743 479.406 155.192 479.098 155.531C478.8 155.861 478.433 156.086 477.998 156.205C478.51 156.306 478.932 156.561 479.265 156.968C479.598 157.366 479.764 157.832 479.764 158.366C479.764 159.07 479.508 159.65 478.996 160.108C478.484 160.566 477.759 160.795 476.82 160.795H473.095ZM474.734 155.633H476.449C476.91 155.633 477.264 155.527 477.511 155.315C477.759 155.103 477.882 154.802 477.882 154.412C477.882 154.039 477.759 153.747 477.511 153.535C477.272 153.314 476.91 153.204 476.423 153.204H474.734V155.633ZM474.734 159.472H476.564C477.05 159.472 477.426 159.362 477.69 159.142C477.963 158.913 478.1 158.595 478.1 158.188C478.1 157.773 477.959 157.446 477.678 157.209C477.396 156.972 477.016 156.853 476.538 156.853H474.734V159.472Z" fill="#4B5162"/>
<path d="M465.441 160.947C464.801 160.947 464.234 160.811 463.739 160.54C463.244 160.269 462.856 159.887 462.574 159.396C462.293 158.904 462.152 158.336 462.152 157.692C462.152 157.039 462.288 156.459 462.561 155.95C462.843 155.442 463.227 155.047 463.713 154.768C464.208 154.48 464.789 154.335 465.454 154.335C466.077 154.335 466.628 154.471 467.105 154.742C467.583 155.014 467.955 155.387 468.219 155.861C468.492 156.327 468.629 156.849 468.629 157.425C468.629 157.518 468.624 157.616 468.616 157.717C468.616 157.819 468.612 157.925 468.603 158.035H463.777C463.812 158.527 463.982 158.913 464.289 159.192C464.605 159.472 464.985 159.612 465.429 159.612C465.761 159.612 466.039 159.54 466.261 159.396C466.491 159.243 466.662 159.048 466.773 158.811H468.437C468.317 159.209 468.117 159.574 467.835 159.904C467.562 160.226 467.221 160.481 466.811 160.667C466.41 160.854 465.953 160.947 465.441 160.947ZM465.454 155.658C465.053 155.658 464.699 155.772 464.392 156.001C464.085 156.221 463.888 156.56 463.803 157.018H466.965C466.939 156.603 466.785 156.272 466.504 156.026C466.222 155.781 465.872 155.658 465.454 155.658Z" fill="#4B5162"/>
<path d="M457.792 160.947C457.144 160.947 456.572 160.807 456.077 160.527C455.582 160.248 455.19 159.858 454.899 159.358C454.618 158.858 454.477 158.285 454.477 157.641C454.477 156.997 454.618 156.425 454.899 155.925C455.19 155.425 455.582 155.035 456.077 154.755C456.572 154.475 457.144 154.335 457.792 154.335C458.603 154.335 459.286 154.547 459.84 154.971C460.395 155.387 460.749 155.963 460.903 156.7H459.175C459.089 156.395 458.919 156.158 458.663 155.988C458.415 155.81 458.121 155.721 457.779 155.721C457.327 155.721 456.943 155.891 456.627 156.23C456.312 156.569 456.154 157.039 456.154 157.641C456.154 158.243 456.312 158.713 456.627 159.052C456.943 159.392 457.327 159.561 457.779 159.561C458.121 159.561 458.415 159.476 458.663 159.307C458.919 159.137 459.089 158.896 459.175 158.582H460.903C460.749 159.294 460.395 159.866 459.84 160.298C459.286 160.731 458.603 160.947 457.792 160.947Z" fill="#4B5162"/>
<path d="M452.152 153.509C451.854 153.509 451.606 153.42 451.41 153.242C451.222 153.064 451.128 152.84 451.128 152.568C451.128 152.297 451.222 152.077 451.41 151.907C451.606 151.729 451.854 151.64 452.152 151.64C452.451 151.64 452.694 151.729 452.882 151.907C453.078 152.077 453.176 152.297 453.176 152.568C453.176 152.84 453.078 153.064 452.882 153.242C452.694 153.42 452.451 153.509 452.152 153.509ZM451.333 160.794V154.488H452.972V160.794H451.333Z" fill="#4B5162"/>
<path d="M445.91 160.795L443.58 154.488H445.295L446.908 159.256L448.521 154.488H450.236L447.894 160.795H445.91Z" fill="#4B5162"/>
<path d="M439.12 160.794V154.488H440.579L440.732 155.67C440.963 155.264 441.274 154.941 441.667 154.704C442.068 154.458 442.537 154.335 443.075 154.335V156.052H442.614C442.256 156.052 441.936 156.107 441.654 156.217C441.372 156.327 441.151 156.518 440.988 156.789C440.835 157.061 440.758 157.438 440.758 157.921V160.794H439.12Z" fill="#4B5162"/>
<path d="M434.554 160.947C433.914 160.947 433.347 160.811 432.852 160.54C432.357 160.269 431.969 159.887 431.687 159.396C431.405 158.904 431.265 158.336 431.265 157.692C431.265 157.039 431.401 156.459 431.674 155.95C431.956 155.442 432.34 155.047 432.826 154.768C433.321 154.48 433.901 154.335 434.567 154.335C435.19 154.335 435.74 154.471 436.218 154.742C436.696 155.014 437.067 155.387 437.332 155.861C437.605 156.327 437.741 156.849 437.741 157.425C437.741 157.518 437.737 157.616 437.729 157.717C437.729 157.819 437.724 157.925 437.716 158.035H432.89C432.924 158.527 433.095 158.913 433.402 159.192C433.718 159.472 434.098 159.612 434.541 159.612C434.874 159.612 435.152 159.54 435.373 159.396C435.604 159.243 435.775 159.048 435.885 158.811H437.549C437.43 159.209 437.229 159.574 436.948 159.904C436.675 160.226 436.333 160.481 435.924 160.667C435.523 160.854 435.066 160.947 434.554 160.947ZM434.567 155.658C434.166 155.658 433.812 155.772 433.505 156.001C433.197 156.221 433.001 156.56 432.916 157.018H436.077C436.052 156.603 435.898 156.272 435.617 156.026C435.335 155.781 434.985 155.658 434.567 155.658Z" fill="#4B5162"/>
<path d="M426.929 160.947C426.272 160.947 425.692 160.837 425.189 160.616C424.685 160.387 424.288 160.065 423.998 159.65C423.708 159.226 423.559 158.713 423.55 158.112H425.278C425.295 158.527 425.445 158.879 425.726 159.167C426.016 159.447 426.413 159.586 426.917 159.586C427.352 159.586 427.697 159.485 427.953 159.281C428.209 159.069 428.337 158.79 428.337 158.442C428.337 158.078 428.222 157.794 427.992 157.59C427.77 157.387 427.471 157.222 427.096 157.094C426.72 156.967 426.319 156.832 425.893 156.688C425.201 156.45 424.672 156.145 424.305 155.772C423.947 155.399 423.768 154.903 423.768 154.285C423.759 153.759 423.883 153.31 424.139 152.937C424.404 152.555 424.762 152.263 425.214 152.06C425.667 151.848 426.187 151.742 426.776 151.742C427.373 151.742 427.898 151.848 428.35 152.06C428.811 152.271 429.169 152.568 429.425 152.95C429.69 153.331 429.831 153.784 429.848 154.31H428.094C428.086 153.996 427.962 153.721 427.723 153.484C427.493 153.238 427.168 153.115 426.75 153.115C426.392 153.106 426.089 153.195 425.841 153.382C425.603 153.56 425.483 153.823 425.483 154.17C425.483 154.467 425.577 154.704 425.765 154.882C425.952 155.052 426.208 155.196 426.533 155.314C426.857 155.433 427.228 155.56 427.646 155.696C428.09 155.848 428.495 156.026 428.862 156.23C429.229 156.433 429.524 156.705 429.745 157.044C429.967 157.374 430.078 157.802 430.078 158.328C430.078 158.794 429.959 159.226 429.72 159.625C429.481 160.023 429.127 160.345 428.657 160.591C428.188 160.828 427.612 160.947 426.929 160.947Z" fill="#4B5162"/>
<rect x="413.4" y="187.416" width="4.8" height="4.76787" rx="2" fill="#6096FA"/>
<path d="M423 189.799C423 188.483 424.067 187.416 425.384 187.416H466.216C467.533 187.416 468.6 188.483 468.6 189.799V189.799C468.6 191.116 467.533 192.183 466.216 192.183H425.384C424.067 192.183 423 191.116 423 189.799V189.799Z" fill="#D2D5E2"/>
<rect x="413.4" y="200.13" width="4.8" height="4.76787" rx="2" fill="#57D3D4"/>
<path d="M423 202.514C423 201.197 424.067 200.13 425.384 200.13H466.216C467.533 200.13 468.6 201.197 468.6 202.514V202.514C468.6 203.83 467.533 204.898 466.216 204.898H425.384C424.067 204.898 423 203.83 423 202.514V202.514Z" fill="#D2D5E2"/>
<rect x="413.4" y="212.844" width="4.8" height="4.76787" rx="2" fill="#999DE7"/>
<path d="M423 215.228C423 213.912 424.067 212.844 425.384 212.844H466.216C467.533 212.844 468.6 213.912 468.6 215.228V215.228C468.6 216.545 467.533 217.612 466.216 217.612H425.384C424.067 217.612 423 216.545 423 215.228V215.228Z" fill="#D2D5E2"/>
<rect x="413.4" y="225.559" width="4.8" height="4.76788" rx="2" fill="#FFCE78"/>
<path d="M423 227.943C423 226.626 424.067 225.559 425.384 225.559H466.216C467.533 225.559 468.6 226.626 468.6 227.943V227.943C468.6 229.259 467.533 230.326 466.216 230.326H425.384C424.067 230.326 423 229.259 423 227.943V227.943Z" fill="#D2D5E2"/>
<rect x="413.4" y="238.273" width="4.8" height="4.76788" rx="2" fill="#F791B3"/>
<path d="M423 240.657C423 239.34 424.067 238.273 425.384 238.273H466.216C467.533 238.273 468.6 239.34 468.6 240.657V240.657C468.6 241.973 467.533 243.041 466.216 243.041H425.384C424.067 243.041 423 241.973 423 240.657V240.657Z" fill="#D2D5E2"/>
<path d="M551 215.228C551 233.88 535.778 249 517 249C498.222 249 483 233.88 483 215.228C483 196.576 498.222 181.456 517 181.456C535.778 181.456 551 196.576 551 215.228ZM504.886 215.228C504.886 221.874 510.309 227.261 517 227.261C523.691 227.261 529.114 221.874 529.114 215.228C529.114 208.582 523.691 203.195 517 203.195C510.309 203.195 504.886 208.582 504.886 215.228Z" fill="#D9D9D9"/>
<path d="M517 181.456C523.22 181.456 529.32 183.15 534.637 186.355C539.955 189.56 544.285 194.152 547.157 199.632C550.03 205.111 551.334 211.269 550.927 217.434C550.521 223.598 548.42 229.534 544.854 234.596L526.924 222.129C528.195 220.325 528.944 218.21 529.088 216.014C529.233 213.817 528.769 211.623 527.745 209.671C526.722 207.719 525.179 206.082 523.284 204.94C521.39 203.799 519.216 203.195 517 203.195L517 181.456Z" fill="#6096FA" stroke="white" stroke-width="2"/>
<path d="M545.554 233.561C542.862 237.699 539.291 241.201 535.091 243.823C530.892 246.444 526.166 248.121 521.245 248.736C516.324 249.351 511.327 248.889 506.604 247.383C501.882 245.877 497.549 243.362 493.908 240.016L508.772 224.06C510.069 225.252 511.613 226.148 513.296 226.685C514.979 227.222 516.759 227.386 518.512 227.167C520.266 226.948 521.95 226.35 523.446 225.416C524.942 224.482 526.215 223.234 527.174 221.76L545.554 233.561Z" fill="#57D3D4" stroke="white" stroke-width="2"/>
<path d="M494.828 240.831C488.732 235.623 484.692 228.438 483.425 220.552L505.037 217.125C505.489 219.935 506.928 222.495 509.1 224.35L494.828 240.831Z" fill="#999DE7" stroke="white" stroke-width="2"/>
<path d="M483.738 222.225C482.109 214.588 483.195 206.627 486.81 199.695C490.424 192.763 496.345 187.289 503.564 184.205L512.213 204.174C509.64 205.273 507.531 207.224 506.243 209.694C504.955 212.163 504.568 215 505.149 217.721L483.738 222.225Z" fill="#FFCE78" stroke="white" stroke-width="2"/>
<path d="M500.9 185.482C505.934 182.794 511.569 181.409 517.284 181.457L517.101 203.195C515.065 203.178 513.057 203.672 511.264 204.629L500.9 185.482Z" fill="#F791B3" stroke="white" stroke-width="2"/>
</g>
<g filter="url(#filter1_dddd_223_84019)">
<path d="M61 22C61 15.3726 66.3726 10 73 10H265.9C272.527 10 277.9 15.3726 277.9 22V213.809C277.9 220.436 272.527 225.809 265.9 225.809H73C66.3726 225.809 61 220.436 61 213.809V22Z" fill="white"/>
<path d="M73 10.5H265.9C272.251 10.5 277.4 15.6487 277.4 22V213.809C277.4 220.16 272.251 225.309 265.9 225.309H73C66.6487 225.309 61.5 220.16 61.5 213.809V22C61.5 15.6487 66.6487 10.5 73 10.5Z" stroke="#ECEEF4"/>
<rect x="81.2354" y="27.7725" width="73.9863" height="9.52099" rx="4.76049" fill="#ECEEF4"/>
<rect x="81.2354" y="43.917" width="127.105" height="7.61679" rx="3.80839" fill="#ECEEF4"/>
<path d="M81.2354 72.2036L257.664 72.2036" stroke="#ECEEF4" stroke-width="0.76207"/>
<rect x="102.021" y="203.819" width="3.79417" height="3.86968" rx="1.89708" fill="#5A78E5"/>
<rect x="112.221" y="202.324" width="26.5592" height="6.34732" rx="3.17366" fill="#ECEEF4"/>
<rect x="151.596" y="203.819" width="3.79417" height="3.86968" rx="1.89708" fill="#B59DF9"/>
<rect x="161.545" y="202.324" width="26.5592" height="6.34732" rx="3.17366" fill="#ECEEF4"/>
<rect x="201.17" y="203.819" width="3.79417" height="3.86968" rx="1.89708" fill="#FDAED0"/>
<rect x="211.501" y="202.324" width="26.5592" height="6.34732" rx="3.17366" fill="#ECEEF4"/>
<rect x="81.2354" y="93.1499" width="13.2796" height="5.07786" rx="2.53893" fill="#ECEEF4"/>
<rect x="81.2354" y="105.845" width="13.2796" height="5.07786" rx="2.53893" fill="#ECEEF4"/>
<rect x="81.2354" y="118.539" width="13.2796" height="5.07786" rx="2.53893" fill="#ECEEF4"/>
<rect x="81.2354" y="131.234" width="13.2796" height="5.07786" rx="2.53893" fill="#ECEEF4"/>
<rect x="81.2354" y="143.928" width="13.2796" height="5.07785" rx="2.53893" fill="#ECEEF4"/>
<rect x="81.2354" y="156.623" width="13.2796" height="5.07786" rx="2.53893" fill="#ECEEF4"/>
<rect x="81.2354" y="169.318" width="13.2796" height="5.07786" rx="2.53893" fill="#ECEEF4"/>
<rect x="105.265" y="180.743" width="13.2796" height="6.34732" rx="3.17366" fill="#ECEEF4"/>
<rect x="131.192" y="180.743" width="13.2796" height="6.34732" rx="3.17366" fill="#ECEEF4"/>
<rect x="157.119" y="180.743" width="13.2796" height="6.34732" rx="3.17366" fill="#ECEEF4"/>
<rect x="183.045" y="180.743" width="13.2796" height="6.34732" rx="3.17366" fill="#ECEEF4"/>
<rect x="208.973" y="180.743" width="13.2796" height="6.34732" rx="3.17366" fill="#ECEEF4"/>
<rect x="234.899" y="180.743" width="13.2796" height="6.34732" rx="3.17366" fill="#ECEEF4"/>
<rect x="102.485" y="93.5309" width="154.167" height="79.8489" stroke="#ECEEF4" stroke-width="0.76207"/>
<path d="M102.021 119.865H256.712" stroke="#ECEEF4" stroke-width="0.76207"/>
<path d="M102.021 106.805H256.712" stroke="#ECEEF4" stroke-width="0.76207"/>
<path d="M102.021 132.925H256.712" stroke="#ECEEF4" stroke-width="0.76207"/>
<path d="M102.021 145.986H256.712" stroke="#ECEEF4" stroke-width="0.76207"/>
<path d="M102.021 159.046H256.712" stroke="#ECEEF4" stroke-width="0.76207"/>
<path d="M128.043 93.2612L128.043 174.041" stroke="#ECEEF4" stroke-width="0.76207"/>
<path d="M153.584 93.2612L153.584 174.041" stroke="#ECEEF4" stroke-width="0.76207"/>
<path d="M179.125 93.2612L179.125 174.041" stroke="#ECEEF4" stroke-width="0.76207"/>
<path d="M204.666 93.2612L204.666 174.041" stroke="#ECEEF4" stroke-width="0.76207"/>
<path d="M230.207 93.2612L230.207 174.041" stroke="#ECEEF4" stroke-width="0.76207"/>
<path d="M102.261 106.805V132.926H204.907L178.884 93.7451L153.584 106.805L128.043 119.624L102.261 106.805Z" fill="#5A78E5"/>
<path d="M229.966 146.227L204.907 132.925H256.23V173.557L229.966 146.227Z" fill="#5A78E5"/>
<ellipse cx="102.419" cy="146.15" rx="1.5809" ry="1.58683" fill="#B59DF9"/>
<ellipse cx="128.346" cy="120.126" rx="1.5809" ry="1.58683" fill="#B59DF9"/>
<ellipse cx="153.64" cy="146.15" rx="1.58091" ry="1.58683" fill="#B59DF9"/>
<ellipse cx="179.567" cy="158.845" rx="1.5809" ry="1.58683" fill="#B59DF9"/>
<ellipse cx="204.862" cy="120.126" rx="1.58091" ry="1.58683" fill="#B59DF9"/>
<ellipse cx="230.156" cy="106.797" rx="1.58089" ry="1.58683" fill="#B59DF9"/>
<ellipse cx="256.083" cy="120.126" rx="1.5809" ry="1.58683" fill="#B59DF9"/>
<path d="M102.261 146.469L128.284 120.107L153.825 146.469L179.366 158.804L205.148 120.107L230.689 106.805L255.989 120.107" stroke="#B59DF9" stroke-width="1.52414"/>
<path d="M102.261 132.926L128.043 145.986L154.307 132.926L178.884 118.414L203.943 106.805L230.207 119.865L256.23 132.926" stroke="#FDAED0" stroke-width="1.52414" stroke-dasharray="3.05 3.05"/>
<ellipse cx="102.419" cy="132.821" rx="1.5809" ry="1.58683" fill="#FDAED0"/>
<ellipse cx="128.346" cy="146.15" rx="1.5809" ry="1.58683" fill="#FDAED0"/>
<ellipse cx="153.64" cy="132.821" rx="1.58091" ry="1.58683" fill="#FDAED0"/>
<ellipse cx="179.567" cy="118.222" rx="1.5809" ry="1.58683" fill="#FDAED0"/>
<ellipse cx="204.862" cy="106.797" rx="1.58091" ry="1.58683" fill="#FDAED0"/>
<ellipse cx="230.156" cy="120.126" rx="1.58089" ry="1.58683" fill="#FDAED0"/>
<ellipse cx="256.083" cy="132.821" rx="1.5809" ry="1.58683" fill="#FDAED0"/>
</g>
<defs>
<filter id="filter0_dddd_223_84019" x="349.4" y="121.393" width="265.6" height="200.679" filterUnits="userSpaceOnUse" color-interpolation-filters="sRGB">
<feFlood flood-opacity="0" result="BackgroundImageFix"/>
<feColorMatrix in="SourceAlpha" type="matrix" values="0 0 0 0 0 0 0 0 0 0 0 0 0 0 0 0 0 0 127 0" result="hardAlpha"/>
<feOffset dy="22"/>
<feGaussianBlur stdDeviation="16"/>
<feColorMatrix type="matrix" values="0 0 0 0 0.170868 0 0 0 0 0.225854 0 0 0 0 0.445799 0 0 0 0.05 0"/>
<feBlend mode="normal" in2="BackgroundImageFix" result="effect1_dropShadow_223_84019"/>
<feColorMatrix in="SourceAlpha" type="matrix" values="0 0 0 0 0 0 0 0 0 0 0 0 0 0 0 0 0 0 127 0" result="hardAlpha"/>
<feOffset dy="18"/>
<feGaussianBlur stdDeviation="10"/>
<feColorMatrix type="matrix" values="0 0 0 0 0.170868 0 0 0 0 0.225854 0 0 0 0 0.445799 0 0 0 0.05 0"/>
<feBlend mode="normal" in2="effect1_dropShadow_223_84019" result="effect2_dropShadow_223_84019"/>
<feColorMatrix in="SourceAlpha" type="matrix" values="0 0 0 0 0 0 0 0 0 0 0 0 0 0 0 0 0 0 127 0" result="hardAlpha"/>
<feOffset dy="6"/>
<feGaussianBlur stdDeviation="4"/>
<feColorMatrix type="matrix" values="0 0 0 0 0.170868 0 0 0 0 0.225854 0 0 0 0 0.445799 0 0 0 0.05 0"/>
<feBlend mode="normal" in2="effect2_dropShadow_223_84019" result="effect3_dropShadow_223_84019"/>
<feColorMatrix in="SourceAlpha" type="matrix" values="0 0 0 0 0 0 0 0 0 0 0 0 0 0 0 0 0 0 127 0" result="hardAlpha"/>
<feOffset/>
<feGaussianBlur stdDeviation="0.5"/>
<feColorMatrix type="matrix" values="0 0 0 0 0.170868 0 0 0 0 0.225854 0 0 0 0 0.445799 0 0 0 0.05 0"/>
<feBlend mode="normal" in2="effect3_dropShadow_223_84019" result="effect4_dropShadow_223_84019"/>
<feBlend mode="normal" in="SourceGraphic" in2="effect4_dropShadow_223_84019" result="shape"/>
</filter>
<filter id="filter1_dddd_223_84019" x="29" y="0" width="280.9" height="279.809" filterUnits="userSpaceOnUse" color-interpolation-filters="sRGB">
<feFlood flood-opacity="0" result="BackgroundImageFix"/>
<feColorMatrix in="SourceAlpha" type="matrix" values="0 0 0 0 0 0 0 0 0 0 0 0 0 0 0 0 0 0 127 0" result="hardAlpha"/>
<feOffset dy="22"/>
<feGaussianBlur stdDeviation="16"/>
<feColorMatrix type="matrix" values="0 0 0 0 0.170868 0 0 0 0 0.225854 0 0 0 0 0.445799 0 0 0 0.05 0"/>
<feBlend mode="normal" in2="BackgroundImageFix" result="effect1_dropShadow_223_84019"/>
<feColorMatrix in="SourceAlpha" type="matrix" values="0 0 0 0 0 0 0 0 0 0 0 0 0 0 0 0 0 0 127 0" result="hardAlpha"/>
<feOffset dy="18"/>
<feGaussianBlur stdDeviation="10"/>
<feColorMatrix type="matrix" values="0 0 0 0 0.170868 0 0 0 0 0.225854 0 0 0 0 0.445799 0 0 0 0.05 0"/>
<feBlend mode="normal" in2="effect1_dropShadow_223_84019" result="effect2_dropShadow_223_84019"/>
<feColorMatrix in="SourceAlpha" type="matrix" values="0 0 0 0 0 0 0 0 0 0 0 0 0 0 0 0 0 0 127 0" result="hardAlpha"/>
<feOffset dy="6"/>
<feGaussianBlur stdDeviation="4"/>
<feColorMatrix type="matrix" values="0 0 0 0 0.170868 0 0 0 0 0.225854 0 0 0 0 0.445799 0 0 0 0.05 0"/>
<feBlend mode="normal" in2="effect2_dropShadow_223_84019" result="effect3_dropShadow_223_84019"/>
<feColorMatrix in="SourceAlpha" type="matrix" values="0 0 0 0 0 0 0 0 0 0 0 0 0 0 0 0 0 0 127 0" result="hardAlpha"/>
<feOffset/>
<feGaussianBlur stdDeviation="0.5"/>
<feColorMatrix type="matrix" values="0 0 0 0 0.170868 0 0 0 0 0.225854 0 0 0 0 0.445799 0 0 0 0.05 0"/>
<feBlend mode="normal" in2="effect3_dropShadow_223_84019" result="effect4_dropShadow_223_84019"/>
<feBlend mode="normal" in="SourceGraphic" in2="effect4_dropShadow_223_84019" result="shape"/>
</filter>
<radialGradient id="paint0_radial_223_84019" cx="0" cy="0" r="1" gradientUnits="userSpaceOnUse" gradientTransform="translate(316.029 884.319) rotate(180) scale(899.476 853.635)">
<stop stop-color="#EDECF3"/>
<stop offset="1" stop-color="#E6E5F5" stop-opacity="0.01"/>
</radialGradient>
<clipPath id="clip0_223_84019">
<path d="M107.8 54.7744C107.8 45.9378 114.963 38.7744 123.8 38.7744H516.6C525.436 38.7744 532.6 45.9379 532.6 54.7744V320.72C532.6 329.557 525.436 336.72 516.6 336.72H123.8C114.963 336.72 107.8 329.557 107.8 320.72V54.7744Z" fill="white"/>
</clipPath>
<clipPath id="clip1_223_84019">
<rect width="424.8" height="298.536" fill="white" transform="translate(107.8 38.7744)"/>
</clipPath>
</defs>
</svg>
