<svg width="157" height="28" viewBox="0 0 157 28" fill="none" xmlns="http://www.w3.org/2000/svg">
<ellipse cx="7.5" cy="14" rx="7.5" ry="8" fill="#021714"/>
<ellipse cx="12.5" cy="14" rx="7.5" ry="8" fill="#22B089"/>
<path d="M23.564 22V5.9H26.508V19.7H33.638V22H23.564ZM40.096 22.276C39.1146 22.276 38.3096 22.1227 37.681 21.816C37.0523 21.494 36.5846 21.0723 36.278 20.551C35.9713 20.0297 35.818 19.4547 35.818 18.826C35.818 17.768 36.232 16.9093 37.06 16.25C37.888 15.5907 39.13 15.261 40.786 15.261H43.684V14.985C43.684 14.203 43.4616 13.628 43.017 13.26C42.5723 12.892 42.0203 12.708 41.361 12.708C40.763 12.708 40.2416 12.8537 39.797 13.145C39.3523 13.421 39.0763 13.835 38.969 14.387H36.094C36.1706 13.559 36.4466 12.8383 36.922 12.225C37.4126 11.6117 38.0413 11.144 38.808 10.822C39.5746 10.4847 40.4333 10.316 41.384 10.316C43.0093 10.316 44.2896 10.7223 45.225 11.535C46.1603 12.3477 46.628 13.4977 46.628 14.985V22H44.121L43.845 20.16C43.5076 20.7733 43.0323 21.2793 42.419 21.678C41.821 22.0767 41.0466 22.276 40.096 22.276ZM40.763 19.976C41.6063 19.976 42.258 19.7 42.718 19.148C43.1933 18.596 43.4923 17.9137 43.615 17.101H41.108C40.326 17.101 39.7663 17.2467 39.429 17.538C39.0916 17.814 38.923 18.159 38.923 18.573C38.923 19.0177 39.0916 19.3627 39.429 19.608C39.7663 19.8533 40.211 19.976 40.763 19.976ZM53.7154 22.276C52.2894 22.276 51.1854 21.8313 50.4034 20.942C49.6367 20.0527 49.2534 18.7493 49.2534 17.032V10.592H52.1744V16.756C52.1744 17.7373 52.3737 18.4887 52.7724 19.01C53.171 19.5313 53.7997 19.792 54.6584 19.792C55.4711 19.792 56.138 19.5007 56.6594 18.918C57.1961 18.3353 57.4644 17.5227 57.4644 16.48V10.592H60.4084V22H57.8094L57.5794 20.068C57.2267 20.7427 56.7131 21.2793 56.0384 21.678C55.379 22.0767 54.6047 22.276 53.7154 22.276ZM63.4305 22V10.592H66.0295L66.2595 12.524C66.6122 11.8493 67.1182 11.3127 67.7775 10.914C68.4522 10.5153 69.2419 10.316 70.1465 10.316C71.5572 10.316 72.6535 10.7607 73.4355 11.65C74.2175 12.5393 74.6085 13.8427 74.6085 15.56V22H71.6645V15.836C71.6645 14.8547 71.4652 14.1033 71.0665 13.582C70.6679 13.0607 70.0469 12.8 69.2035 12.8C68.3755 12.8 67.6932 13.0913 67.1565 13.674C66.6352 14.2567 66.3745 15.0693 66.3745 16.112V22H63.4305ZM83.0127 22.276C81.8474 22.276 80.82 22.023 79.9307 21.517C79.0414 21.011 78.336 20.3057 77.8147 19.401C77.3087 18.4963 77.0557 17.4613 77.0557 16.296C77.0557 15.1307 77.3087 14.0957 77.8147 13.191C78.336 12.2863 79.0414 11.581 79.9307 11.075C80.82 10.569 81.8474 10.316 83.0127 10.316C84.4694 10.316 85.696 10.6993 86.6927 11.466C87.6894 12.2173 88.3257 13.26 88.6017 14.594H85.4967C85.3434 14.042 85.0367 13.6127 84.5767 13.306C84.132 12.984 83.603 12.823 82.9897 12.823C82.177 12.823 81.487 13.1297 80.9197 13.743C80.3524 14.3563 80.0687 15.2073 80.0687 16.296C80.0687 17.3847 80.3524 18.2357 80.9197 18.849C81.487 19.4623 82.177 19.769 82.9897 19.769C83.603 19.769 84.132 19.6157 84.5767 19.309C85.0367 19.0023 85.3434 18.5653 85.4967 17.998H88.6017C88.3257 19.286 87.6894 20.321 86.6927 21.103C85.696 21.885 84.4694 22.276 83.0127 22.276ZM91.2147 22V5.44H94.1587V12.34C94.5421 11.7113 95.0557 11.2207 95.6997 10.868C96.3591 10.5 97.1104 10.316 97.9537 10.316C99.3644 10.316 100.453 10.7607 101.22 11.65C102.002 12.5393 102.393 13.8427 102.393 15.56V22H99.4717V15.836C99.4717 14.8547 99.2724 14.1033 98.8737 13.582C98.4904 13.0607 97.8771 12.8 97.0337 12.8C96.2057 12.8 95.5157 13.0913 94.9637 13.674C94.4271 14.2567 94.1587 15.0693 94.1587 16.112V22H91.2147ZM105.277 22V5.9H111.234C112.522 5.9 113.588 6.11467 114.431 6.544C115.274 6.97333 115.903 7.56367 116.317 8.315C116.731 9.06633 116.938 9.90967 116.938 10.845C116.938 11.7343 116.739 12.5547 116.34 13.306C115.941 14.042 115.32 14.64 114.477 15.1C113.634 15.5447 112.553 15.767 111.234 15.767H108.221V22H105.277ZM108.221 13.375H111.05C112.077 13.375 112.813 13.1527 113.258 12.708C113.718 12.248 113.948 11.627 113.948 10.845C113.948 10.0477 113.718 9.42667 113.258 8.982C112.813 8.522 112.077 8.292 111.05 8.292H108.221V13.375ZM122.393 22.276C121.412 22.276 120.607 22.1227 119.978 21.816C119.349 21.494 118.882 21.0723 118.575 20.551C118.268 20.0297 118.115 19.4547 118.115 18.826C118.115 17.768 118.529 16.9093 119.357 16.25C120.185 15.5907 121.427 15.261 123.083 15.261H125.981V14.985C125.981 14.203 125.759 13.628 125.314 13.26C124.869 12.892 124.317 12.708 123.658 12.708C123.06 12.708 122.539 12.8537 122.094 13.145C121.649 13.421 121.373 13.835 121.266 14.387H118.391C118.468 13.559 118.744 12.8383 119.219 12.225C119.71 11.6117 120.338 11.144 121.105 10.822C121.872 10.4847 122.73 10.316 123.681 10.316C125.306 10.316 126.587 10.7223 127.522 11.535C128.457 12.3477 128.925 13.4977 128.925 14.985V22H126.418L126.142 20.16C125.805 20.7733 125.329 21.2793 124.716 21.678C124.118 22.0767 123.344 22.276 122.393 22.276ZM123.06 19.976C123.903 19.976 124.555 19.7 125.015 19.148C125.49 18.596 125.789 17.9137 125.912 17.101H123.405C122.623 17.101 122.063 17.2467 121.726 17.538C121.389 17.814 121.22 18.159 121.22 18.573C121.22 19.0177 121.389 19.3627 121.726 19.608C122.063 19.8533 122.508 19.976 123.06 19.976ZM136.564 18.596C136.012 18.596 135.499 18.5347 135.023 18.412L134.172 19.263C134.433 19.401 134.786 19.516 135.23 19.608C135.675 19.7 136.396 19.792 137.392 19.884C138.91 20.022 140.014 20.3823 140.704 20.965C141.394 21.5477 141.739 22.3527 141.739 23.38C141.739 24.0547 141.555 24.691 141.187 25.289C140.819 25.9023 140.252 26.393 139.485 26.761C138.719 27.1443 137.737 27.336 136.541 27.336C134.916 27.336 133.605 27.0293 132.608 26.416C131.612 25.818 131.113 24.9133 131.113 23.702C131.113 22.6747 131.612 21.7853 132.608 21.034C132.302 20.896 132.033 20.7503 131.803 20.597C131.589 20.4437 131.397 20.2827 131.228 20.114V19.585L133.229 17.469C132.34 16.687 131.895 15.6827 131.895 14.456C131.895 13.6893 132.079 12.9917 132.447 12.363C132.831 11.7343 133.367 11.236 134.057 10.868C134.747 10.5 135.583 10.316 136.564 10.316C137.208 10.316 137.806 10.408 138.358 10.592H142.682V12.386L140.727 12.524C141.034 13.1067 141.187 13.7507 141.187 14.456C141.187 15.2227 141.003 15.9203 140.635 16.549C140.267 17.1777 139.731 17.676 139.025 18.044C138.335 18.412 137.515 18.596 136.564 18.596ZM136.564 16.342C137.162 16.342 137.653 16.181 138.036 15.859C138.435 15.537 138.634 15.077 138.634 14.479C138.634 13.881 138.435 13.421 138.036 13.099C137.653 12.777 137.162 12.616 136.564 12.616C135.936 12.616 135.43 12.777 135.046 13.099C134.663 13.421 134.471 13.881 134.471 14.479C134.471 15.077 134.663 15.537 135.046 15.859C135.43 16.181 135.936 16.342 136.564 16.342ZM133.804 23.403C133.804 23.9703 134.065 24.392 134.586 24.668C135.123 24.9593 135.775 25.105 136.541 25.105C137.277 25.105 137.875 24.9517 138.335 24.645C138.795 24.3537 139.025 23.955 139.025 23.449C139.025 23.035 138.872 22.69 138.565 22.414C138.274 22.138 137.684 21.9693 136.794 21.908C136.166 21.862 135.583 21.793 135.046 21.701C134.602 21.9463 134.28 22.2147 134.08 22.506C133.896 22.7973 133.804 23.0963 133.804 23.403ZM149.923 22.276C148.773 22.276 147.753 22.0307 146.864 21.54C145.974 21.0493 145.277 20.3593 144.771 19.47C144.265 18.5807 144.012 17.5533 144.012 16.388C144.012 15.2073 144.257 14.157 144.748 13.237C145.254 12.317 145.944 11.604 146.818 11.098C147.707 10.5767 148.75 10.316 149.946 10.316C151.065 10.316 152.054 10.5613 152.913 11.052C153.771 11.5427 154.438 12.2173 154.914 13.076C155.404 13.9193 155.65 14.8623 155.65 15.905C155.65 16.0737 155.642 16.25 155.627 16.434C155.627 16.618 155.619 16.8097 155.604 17.009H146.933C146.994 17.8983 147.301 18.596 147.853 19.102C148.42 19.608 149.102 19.861 149.9 19.861C150.498 19.861 150.996 19.7307 151.395 19.47C151.809 19.194 152.115 18.8413 152.315 18.412H155.305C155.09 19.1327 154.73 19.792 154.224 20.39C153.733 20.9727 153.12 21.4327 152.384 21.77C151.663 22.1073 150.843 22.276 149.923 22.276ZM149.946 12.708C149.225 12.708 148.589 12.915 148.037 13.329C147.485 13.7277 147.132 14.341 146.979 15.169H152.66C152.614 14.4177 152.338 13.8197 151.832 13.375C151.326 12.9303 150.697 12.708 149.946 12.708Z" fill="black"/>
</svg>
