<svg width="1198" height="48" viewBox="0 0 1198 48" fill="none" xmlns="http://www.w3.org/2000/svg">
<ellipse cx="18.5" cy="24" rx="8.5" ry="8" fill="#021714"/>
<ellipse cx="25.5" cy="24" rx="8.5" ry="8" fill="#1A896B"/>
<path d="M37.564 32V15.9H40.508V29.7H47.638V32H37.564ZM54.096 32.276C53.1146 32.276 52.3096 32.1227 51.681 31.816C51.0523 31.494 50.5846 31.0723 50.278 30.551C49.9713 30.0297 49.818 29.4547 49.818 28.826C49.818 27.768 50.232 26.9093 51.06 26.25C51.888 25.5907 53.13 25.261 54.786 25.261H57.684V24.985C57.684 24.203 57.4616 23.628 57.017 23.26C56.5723 22.892 56.0203 22.708 55.361 22.708C54.763 22.708 54.2416 22.8537 53.797 23.145C53.3523 23.421 53.0763 23.835 52.969 24.387H50.094C50.1706 23.559 50.4466 22.8383 50.922 22.225C51.4126 21.6117 52.0413 21.144 52.808 20.822C53.5746 20.4847 54.4333 20.316 55.384 20.316C57.0093 20.316 58.2896 20.7223 59.225 21.535C60.1603 22.3477 60.628 23.4977 60.628 24.985V32H58.121L57.845 30.16C57.5076 30.7733 57.0323 31.2793 56.419 31.678C55.821 32.0767 55.0466 32.276 54.096 32.276ZM54.763 29.976C55.6063 29.976 56.258 29.7 56.718 29.148C57.1933 28.596 57.4923 27.9137 57.615 27.101H55.108C54.326 27.101 53.7663 27.2467 53.429 27.538C53.0916 27.814 52.923 28.159 52.923 28.573C52.923 29.0177 53.0916 29.3627 53.429 29.608C53.7663 29.8533 54.211 29.976 54.763 29.976ZM67.7154 32.276C66.2894 32.276 65.1854 31.8313 64.4034 30.942C63.6367 30.0527 63.2534 28.7493 63.2534 27.032V20.592H66.1744V26.756C66.1744 27.7373 66.3737 28.4887 66.7724 29.01C67.171 29.5313 67.7997 29.792 68.6584 29.792C69.4711 29.792 70.138 29.5007 70.6594 28.918C71.1961 28.3353 71.4644 27.5227 71.4644 26.48V20.592H74.4084V32H71.8094L71.5794 30.068C71.2267 30.7427 70.7131 31.2793 70.0384 31.678C69.379 32.0767 68.6047 32.276 67.7154 32.276ZM77.4305 32V20.592H80.0295L80.2595 22.524C80.6122 21.8493 81.1182 21.3127 81.7775 20.914C82.4522 20.5153 83.2419 20.316 84.1465 20.316C85.5572 20.316 86.6535 20.7607 87.4355 21.65C88.2175 22.5393 88.6085 23.8427 88.6085 25.56V32H85.6645V25.836C85.6645 24.8547 85.4652 24.1033 85.0665 23.582C84.6679 23.0607 84.0469 22.8 83.2035 22.8C82.3755 22.8 81.6932 23.0913 81.1565 23.674C80.6352 24.2567 80.3745 25.0693 80.3745 26.112V32H77.4305ZM97.0127 32.276C95.8474 32.276 94.82 32.023 93.9307 31.517C93.0414 31.011 92.336 30.3057 91.8147 29.401C91.3087 28.4963 91.0557 27.4613 91.0557 26.296C91.0557 25.1307 91.3087 24.0957 91.8147 23.191C92.336 22.2863 93.0414 21.581 93.9307 21.075C94.82 20.569 95.8474 20.316 97.0127 20.316C98.4694 20.316 99.696 20.6993 100.693 21.466C101.689 22.2173 102.326 23.26 102.602 24.594H99.4967C99.3434 24.042 99.0367 23.6127 98.5767 23.306C98.132 22.984 97.603 22.823 96.9897 22.823C96.177 22.823 95.487 23.1297 94.9197 23.743C94.3524 24.3563 94.0687 25.2073 94.0687 26.296C94.0687 27.3847 94.3524 28.2357 94.9197 28.849C95.487 29.4623 96.177 29.769 96.9897 29.769C97.603 29.769 98.132 29.6157 98.5767 29.309C99.0367 29.0023 99.3434 28.5653 99.4967 27.998H102.602C102.326 29.286 101.689 30.321 100.693 31.103C99.696 31.885 98.4694 32.276 97.0127 32.276ZM105.215 32V15.44H108.159V22.34C108.542 21.7113 109.056 21.2207 109.7 20.868C110.359 20.5 111.11 20.316 111.954 20.316C113.364 20.316 114.453 20.7607 115.22 21.65C116.002 22.5393 116.393 23.8427 116.393 25.56V32H113.472V25.836C113.472 24.8547 113.272 24.1033 112.874 23.582C112.49 23.0607 111.877 22.8 111.034 22.8C110.206 22.8 109.516 23.0913 108.964 23.674C108.427 24.2567 108.159 25.0693 108.159 26.112V32H105.215ZM119.277 32V15.9H125.234C126.522 15.9 127.588 16.1147 128.431 16.544C129.274 16.9733 129.903 17.5637 130.317 18.315C130.731 19.0663 130.938 19.9097 130.938 20.845C130.938 21.7343 130.739 22.5547 130.34 23.306C129.941 24.042 129.32 24.64 128.477 25.1C127.634 25.5447 126.553 25.767 125.234 25.767H122.221V32H119.277ZM122.221 23.375H125.05C126.077 23.375 126.813 23.1527 127.258 22.708C127.718 22.248 127.948 21.627 127.948 20.845C127.948 20.0477 127.718 19.4267 127.258 18.982C126.813 18.522 126.077 18.292 125.05 18.292H122.221V23.375ZM136.393 32.276C135.412 32.276 134.607 32.1227 133.978 31.816C133.349 31.494 132.882 31.0723 132.575 30.551C132.268 30.0297 132.115 29.4547 132.115 28.826C132.115 27.768 132.529 26.9093 133.357 26.25C134.185 25.5907 135.427 25.261 137.083 25.261H139.981V24.985C139.981 24.203 139.759 23.628 139.314 23.26C138.869 22.892 138.317 22.708 137.658 22.708C137.06 22.708 136.539 22.8537 136.094 23.145C135.649 23.421 135.373 23.835 135.266 24.387H132.391C132.468 23.559 132.744 22.8383 133.219 22.225C133.71 21.6117 134.338 21.144 135.105 20.822C135.872 20.4847 136.73 20.316 137.681 20.316C139.306 20.316 140.587 20.7223 141.522 21.535C142.457 22.3477 142.925 23.4977 142.925 24.985V32H140.418L140.142 30.16C139.805 30.7733 139.329 31.2793 138.716 31.678C138.118 32.0767 137.344 32.276 136.393 32.276ZM137.06 29.976C137.903 29.976 138.555 29.7 139.015 29.148C139.49 28.596 139.789 27.9137 139.912 27.101H137.405C136.623 27.101 136.063 27.2467 135.726 27.538C135.389 27.814 135.22 28.159 135.22 28.573C135.22 29.0177 135.389 29.3627 135.726 29.608C136.063 29.8533 136.508 29.976 137.06 29.976ZM150.564 28.596C150.012 28.596 149.499 28.5347 149.023 28.412L148.172 29.263C148.433 29.401 148.786 29.516 149.23 29.608C149.675 29.7 150.396 29.792 151.392 29.884C152.91 30.022 154.014 30.3823 154.704 30.965C155.394 31.5477 155.739 32.3527 155.739 33.38C155.739 34.0547 155.555 34.691 155.187 35.289C154.819 35.9023 154.252 36.393 153.485 36.761C152.719 37.1443 151.737 37.336 150.541 37.336C148.916 37.336 147.605 37.0293 146.608 36.416C145.612 35.818 145.113 34.9133 145.113 33.702C145.113 32.6747 145.612 31.7853 146.608 31.034C146.302 30.896 146.033 30.7503 145.803 30.597C145.589 30.4437 145.397 30.2827 145.228 30.114V29.585L147.229 27.469C146.34 26.687 145.895 25.6827 145.895 24.456C145.895 23.6893 146.079 22.9917 146.447 22.363C146.831 21.7343 147.367 21.236 148.057 20.868C148.747 20.5 149.583 20.316 150.564 20.316C151.208 20.316 151.806 20.408 152.358 20.592H156.682V22.386L154.727 22.524C155.034 23.1067 155.187 23.7507 155.187 24.456C155.187 25.2227 155.003 25.9203 154.635 26.549C154.267 27.1777 153.731 27.676 153.025 28.044C152.335 28.412 151.515 28.596 150.564 28.596ZM150.564 26.342C151.162 26.342 151.653 26.181 152.036 25.859C152.435 25.537 152.634 25.077 152.634 24.479C152.634 23.881 152.435 23.421 152.036 23.099C151.653 22.777 151.162 22.616 150.564 22.616C149.936 22.616 149.43 22.777 149.046 23.099C148.663 23.421 148.471 23.881 148.471 24.479C148.471 25.077 148.663 25.537 149.046 25.859C149.43 26.181 149.936 26.342 150.564 26.342ZM147.804 33.403C147.804 33.9703 148.065 34.392 148.586 34.668C149.123 34.9593 149.775 35.105 150.541 35.105C151.277 35.105 151.875 34.9517 152.335 34.645C152.795 34.3537 153.025 33.955 153.025 33.449C153.025 33.035 152.872 32.69 152.565 32.414C152.274 32.138 151.684 31.9693 150.794 31.908C150.166 31.862 149.583 31.793 149.046 31.701C148.602 31.9463 148.28 32.2147 148.08 32.506C147.896 32.7973 147.804 33.0963 147.804 33.403ZM163.923 32.276C162.773 32.276 161.753 32.0307 160.864 31.54C159.974 31.0493 159.277 30.3593 158.771 29.47C158.265 28.5807 158.012 27.5533 158.012 26.388C158.012 25.2073 158.257 24.157 158.748 23.237C159.254 22.317 159.944 21.604 160.818 21.098C161.707 20.5767 162.75 20.316 163.946 20.316C165.065 20.316 166.054 20.5613 166.913 21.052C167.771 21.5427 168.438 22.2173 168.914 23.076C169.404 23.9193 169.65 24.8623 169.65 25.905C169.65 26.0737 169.642 26.25 169.627 26.434C169.627 26.618 169.619 26.8097 169.604 27.009H160.933C160.994 27.8983 161.301 28.596 161.853 29.102C162.42 29.608 163.102 29.861 163.9 29.861C164.498 29.861 164.996 29.7307 165.395 29.47C165.809 29.194 166.115 28.8413 166.315 28.412H169.305C169.09 29.1327 168.73 29.792 168.224 30.39C167.733 30.9727 167.12 31.4327 166.384 31.77C165.663 32.1073 164.843 32.276 163.923 32.276ZM163.946 22.708C163.225 22.708 162.589 22.915 162.037 23.329C161.485 23.7277 161.132 24.341 160.979 25.169H166.66C166.614 24.4177 166.338 23.8197 165.832 23.375C165.326 22.9303 164.697 22.708 163.946 22.708Z" fill="black"/>
<path d="M317.136 29.5V18.3H318.832V23.1H324.256V18.3H325.952V29.5H324.256V24.492H318.832V29.5H317.136ZM331.878 29.692C331.12 29.692 330.438 29.5213 329.83 29.18C329.232 28.828 328.758 28.3427 328.406 27.724C328.054 27.0947 327.878 26.364 327.878 25.532C327.878 24.7 328.054 23.9747 328.406 23.356C328.768 22.7267 329.254 22.2413 329.862 21.9C330.47 21.548 331.147 21.372 331.894 21.372C332.651 21.372 333.328 21.548 333.926 21.9C334.534 22.2413 335.014 22.7267 335.366 23.356C335.728 23.9747 335.91 24.7 335.91 25.532C335.91 26.364 335.728 27.0947 335.366 27.724C335.014 28.3427 334.534 28.828 333.926 29.18C333.318 29.5213 332.635 29.692 331.878 29.692ZM331.878 28.236C332.283 28.236 332.656 28.1347 332.998 27.932C333.35 27.7293 333.632 27.4307 333.846 27.036C334.059 26.6307 334.166 26.1293 334.166 25.532C334.166 24.9347 334.059 24.4387 333.846 24.044C333.643 23.6387 333.366 23.3347 333.014 23.132C332.672 22.9293 332.299 22.828 331.894 22.828C331.488 22.828 331.11 22.9293 330.758 23.132C330.416 23.3347 330.139 23.6387 329.926 24.044C329.712 24.4387 329.606 24.9347 329.606 25.532C329.606 26.1293 329.712 26.6307 329.926 27.036C330.139 27.4307 330.416 27.7293 330.758 27.932C331.099 28.1347 331.472 28.236 331.878 28.236ZM337.744 29.5V21.564H339.248L339.392 22.684C339.648 22.2787 339.984 21.9587 340.4 21.724C340.827 21.4893 341.317 21.372 341.872 21.372C343.131 21.372 344.005 21.868 344.496 22.86C344.784 22.4013 345.168 22.0387 345.648 21.772C346.139 21.5053 346.667 21.372 347.232 21.372C348.224 21.372 349.003 21.6707 349.568 22.268C350.133 22.8653 350.416 23.756 350.416 24.94V29.5H348.72V25.116C348.72 23.58 348.133 22.812 346.96 22.812C346.363 22.812 345.872 23.036 345.488 23.484C345.115 23.932 344.928 24.572 344.928 25.404V29.5H343.232V25.116C343.232 23.58 342.64 22.812 341.456 22.812C340.869 22.812 340.384 23.036 340 23.484C339.627 23.932 339.44 24.572 339.44 25.404V29.5H337.744ZM356.112 29.692C355.333 29.692 354.64 29.5213 354.032 29.18C353.435 28.828 352.965 28.3427 352.624 27.724C352.283 27.1053 352.112 26.3853 352.112 25.564C352.112 24.732 352.277 24.0013 352.608 23.372C352.949 22.7427 353.419 22.252 354.016 21.9C354.624 21.548 355.328 21.372 356.128 21.372C356.907 21.372 357.584 21.548 358.16 21.9C358.736 22.2413 359.184 22.7 359.504 23.276C359.824 23.852 359.984 24.4867 359.984 25.18C359.984 25.2867 359.979 25.404 359.968 25.532C359.968 25.6493 359.963 25.7827 359.952 25.932H353.776C353.829 26.7 354.08 27.2867 354.528 27.692C354.987 28.0867 355.515 28.284 356.112 28.284C356.592 28.284 356.992 28.1773 357.312 27.964C357.643 27.74 357.888 27.4413 358.048 27.068H359.744C359.531 27.8147 359.104 28.4387 358.464 28.94C357.835 29.4413 357.051 29.692 356.112 29.692ZM356.112 22.764C355.547 22.764 355.045 22.9347 354.608 23.276C354.171 23.6067 353.904 24.108 353.808 24.78H358.288C358.256 24.1613 358.037 23.6707 357.632 23.308C357.227 22.9453 356.72 22.764 356.112 22.764Z" fill="#212D3B"/>
<path d="M417.136 29.5V18.3H424.16V19.676H418.832V23.212H423.248V24.572H418.832V29.5H417.136ZM429.081 29.692C428.302 29.692 427.609 29.5213 427.001 29.18C426.404 28.828 425.934 28.3427 425.593 27.724C425.252 27.1053 425.081 26.3853 425.081 25.564C425.081 24.732 425.246 24.0013 425.577 23.372C425.918 22.7427 426.388 22.252 426.985 21.9C427.593 21.548 428.297 21.372 429.097 21.372C429.876 21.372 430.553 21.548 431.129 21.9C431.705 22.2413 432.153 22.7 432.473 23.276C432.793 23.852 432.953 24.4867 432.953 25.18C432.953 25.2867 432.948 25.404 432.937 25.532C432.937 25.6493 432.932 25.7827 432.921 25.932H426.745C426.798 26.7 427.049 27.2867 427.497 27.692C427.956 28.0867 428.484 28.284 429.081 28.284C429.561 28.284 429.961 28.1773 430.281 27.964C430.612 27.74 430.857 27.4413 431.017 27.068H432.713C432.5 27.8147 432.073 28.4387 431.433 28.94C430.804 29.4413 430.02 29.692 429.081 29.692ZM429.081 22.764C428.516 22.764 428.014 22.9347 427.577 23.276C427.14 23.6067 426.873 24.108 426.777 24.78H431.257C431.225 24.1613 431.006 23.6707 430.601 23.308C430.196 22.9453 429.689 22.764 429.081 22.764ZM437.401 29.692C436.729 29.692 436.174 29.58 435.737 29.356C435.299 29.132 434.974 28.8387 434.761 28.476C434.547 28.1027 434.441 27.6973 434.441 27.26C434.441 26.492 434.739 25.884 435.337 25.436C435.934 24.988 436.787 24.764 437.897 24.764H439.977V24.62C439.977 24.0013 439.806 23.5373 439.465 23.228C439.134 22.9187 438.702 22.764 438.169 22.764C437.699 22.764 437.289 22.8813 436.937 23.116C436.595 23.34 436.387 23.676 436.313 24.124H434.617C434.67 23.548 434.862 23.0573 435.193 22.652C435.534 22.236 435.961 21.9213 436.473 21.708C436.995 21.484 437.566 21.372 438.185 21.372C439.294 21.372 440.153 21.6653 440.761 22.252C441.369 22.828 441.673 23.6173 441.673 24.62V29.5H440.201L440.057 28.14C439.833 28.5773 439.507 28.9453 439.081 29.244C438.654 29.5427 438.094 29.692 437.401 29.692ZM437.737 28.316C438.195 28.316 438.579 28.2093 438.889 27.996C439.209 27.772 439.454 27.4787 439.625 27.116C439.806 26.7533 439.918 26.3533 439.961 25.916H438.073C437.401 25.916 436.921 26.0333 436.633 26.268C436.355 26.5027 436.217 26.796 436.217 27.148C436.217 27.5107 436.35 27.7987 436.617 28.012C436.894 28.2147 437.267 28.316 437.737 28.316ZM446.822 29.5C446.043 29.5 445.425 29.3133 444.966 28.94C444.507 28.556 444.278 27.8787 444.278 26.908V22.988H442.918V21.564H444.278L444.486 19.548H445.974V21.564H448.214V22.988H445.974V26.908C445.974 27.3453 446.065 27.6493 446.246 27.82C446.438 27.98 446.763 28.06 447.222 28.06H448.134V29.5H446.822ZM452.891 29.692C451.931 29.692 451.173 29.3933 450.619 28.796C450.075 28.1987 449.803 27.308 449.803 26.124V21.564H451.499V25.948C451.499 27.484 452.128 28.252 453.387 28.252C454.016 28.252 454.533 28.028 454.939 27.58C455.344 27.132 455.547 26.492 455.547 25.66V21.564H457.243V29.5H455.739L455.611 28.108C455.365 28.5987 455.003 28.988 454.523 29.276C454.053 29.5533 453.509 29.692 452.891 29.692ZM459.4 29.5V21.564H460.92L461.064 23.068C461.341 22.5453 461.725 22.1347 462.216 21.836C462.717 21.5267 463.32 21.372 464.024 21.372V23.148H463.56C463.091 23.148 462.669 23.228 462.296 23.388C461.933 23.5373 461.64 23.7987 461.416 24.172C461.203 24.5347 461.096 25.0413 461.096 25.692V29.5H459.4ZM468.972 29.692C468.193 29.692 467.5 29.5213 466.892 29.18C466.294 28.828 465.825 28.3427 465.484 27.724C465.142 27.1053 464.972 26.3853 464.972 25.564C464.972 24.732 465.137 24.0013 465.468 23.372C465.809 22.7427 466.278 22.252 466.876 21.9C467.484 21.548 468.188 21.372 468.988 21.372C469.766 21.372 470.444 21.548 471.02 21.9C471.596 22.2413 472.044 22.7 472.364 23.276C472.684 23.852 472.844 24.4867 472.844 25.18C472.844 25.2867 472.838 25.404 472.828 25.532C472.828 25.6493 472.822 25.7827 472.812 25.932H466.636C466.689 26.7 466.94 27.2867 467.388 27.692C467.846 28.0867 468.374 28.284 468.972 28.284C469.452 28.284 469.852 28.1773 470.172 27.964C470.502 27.74 470.748 27.4413 470.908 27.068H472.604C472.39 27.8147 471.964 28.4387 471.324 28.94C470.694 29.4413 469.91 29.692 468.972 29.692ZM468.972 22.764C468.406 22.764 467.905 22.9347 467.468 23.276C467.03 23.6067 466.764 24.108 466.668 24.78H471.148C471.116 24.1613 470.897 23.6707 470.492 23.308C470.086 22.9453 469.58 22.764 468.972 22.764ZM477.771 29.692C476.769 29.692 475.942 29.4467 475.291 28.956C474.641 28.4653 474.267 27.8147 474.171 27.004H475.883C475.969 27.3667 476.171 27.6813 476.491 27.948C476.811 28.204 477.233 28.332 477.755 28.332C478.267 28.332 478.641 28.2253 478.875 28.012C479.11 27.7987 479.227 27.5533 479.227 27.276C479.227 26.8707 479.062 26.5987 478.731 26.46C478.411 26.3107 477.963 26.1773 477.387 26.06C476.939 25.964 476.491 25.836 476.043 25.676C475.606 25.516 475.238 25.292 474.939 25.004C474.651 24.7053 474.507 24.3053 474.507 23.804C474.507 23.1107 474.774 22.5347 475.307 22.076C475.841 21.6067 476.587 21.372 477.547 21.372C478.433 21.372 479.147 21.5853 479.691 22.012C480.246 22.4387 480.571 23.0413 480.667 23.82H479.035C478.982 23.4787 478.822 23.212 478.555 23.02C478.299 22.828 477.953 22.732 477.515 22.732C477.089 22.732 476.758 22.8227 476.523 23.004C476.289 23.1747 476.171 23.3987 476.171 23.676C476.171 23.9533 476.331 24.172 476.651 24.332C476.982 24.492 477.414 24.636 477.947 24.764C478.481 24.8813 478.971 25.02 479.419 25.18C479.878 25.3293 480.246 25.5533 480.523 25.852C480.801 26.1507 480.939 26.588 480.939 27.164C480.95 27.8893 480.667 28.492 480.091 28.972C479.526 29.452 478.753 29.692 477.771 29.692Z" fill="#212D3B"/>
<path d="M540.76 29.5V19.676H537.448V18.3H545.752V19.676H542.456V29.5H540.76ZM549.55 29.692C548.771 29.692 548.078 29.5213 547.47 29.18C546.872 28.828 546.403 28.3427 546.062 27.724C545.72 27.1053 545.55 26.3853 545.55 25.564C545.55 24.732 545.715 24.0013 546.046 23.372C546.387 22.7427 546.856 22.252 547.454 21.9C548.062 21.548 548.766 21.372 549.566 21.372C550.344 21.372 551.022 21.548 551.598 21.9C552.174 22.2413 552.622 22.7 552.942 23.276C553.262 23.852 553.422 24.4867 553.422 25.18C553.422 25.2867 553.416 25.404 553.406 25.532C553.406 25.6493 553.4 25.7827 553.39 25.932H547.214C547.267 26.7 547.518 27.2867 547.966 27.692C548.424 28.0867 548.952 28.284 549.55 28.284C550.03 28.284 550.43 28.1773 550.75 27.964C551.08 27.74 551.326 27.4413 551.486 27.068H553.182C552.968 27.8147 552.542 28.4387 551.902 28.94C551.272 29.4413 550.488 29.692 549.55 29.692ZM549.55 22.764C548.984 22.764 548.483 22.9347 548.046 23.276C547.608 23.6067 547.342 24.108 547.246 24.78H551.726C551.694 24.1613 551.475 23.6707 551.07 23.308C550.664 22.9453 550.158 22.764 549.55 22.764ZM558.349 29.692C557.347 29.692 556.52 29.4467 555.869 28.956C555.219 28.4653 554.845 27.8147 554.749 27.004H556.461C556.547 27.3667 556.749 27.6813 557.069 27.948C557.389 28.204 557.811 28.332 558.333 28.332C558.845 28.332 559.219 28.2253 559.453 28.012C559.688 27.7987 559.805 27.5533 559.805 27.276C559.805 26.8707 559.64 26.5987 559.309 26.46C558.989 26.3107 558.541 26.1773 557.965 26.06C557.517 25.964 557.069 25.836 556.621 25.676C556.184 25.516 555.816 25.292 555.517 25.004C555.229 24.7053 555.085 24.3053 555.085 23.804C555.085 23.1107 555.352 22.5347 555.885 22.076C556.419 21.6067 557.165 21.372 558.125 21.372C559.011 21.372 559.725 21.5853 560.269 22.012C560.824 22.4387 561.149 23.0413 561.245 23.82H559.613C559.56 23.4787 559.4 23.212 559.133 23.02C558.877 22.828 558.531 22.732 558.093 22.732C557.667 22.732 557.336 22.8227 557.101 23.004C556.867 23.1747 556.749 23.3987 556.749 23.676C556.749 23.9533 556.909 24.172 557.229 24.332C557.56 24.492 557.992 24.636 558.525 24.764C559.059 24.8813 559.549 25.02 559.997 25.18C560.456 25.3293 560.824 25.5533 561.101 25.852C561.379 26.1507 561.517 26.588 561.517 27.164C561.528 27.8893 561.245 28.492 560.669 28.972C560.104 29.452 559.331 29.692 558.349 29.692ZM566.4 29.5C565.621 29.5 565.003 29.3133 564.544 28.94C564.085 28.556 563.856 27.8787 563.856 26.908V22.988H562.496V21.564H563.856L564.064 19.548H565.552V21.564H567.792V22.988H565.552V26.908C565.552 27.3453 565.643 27.6493 565.824 27.82C566.016 27.98 566.341 28.06 566.8 28.06H567.712V29.5H566.4ZM570.501 20.06C570.181 20.06 569.914 19.964 569.701 19.772C569.498 19.5693 569.397 19.3187 569.397 19.02C569.397 18.7213 569.498 18.476 569.701 18.284C569.914 18.0813 570.181 17.98 570.501 17.98C570.821 17.98 571.082 18.0813 571.285 18.284C571.498 18.476 571.605 18.7213 571.605 19.02C571.605 19.3187 571.498 19.5693 571.285 19.772C571.082 19.964 570.821 20.06 570.501 20.06ZM569.653 29.5V21.564H571.349V29.5H569.653ZM573.588 29.5V21.564H575.092L575.236 22.684C575.492 22.2787 575.828 21.9587 576.244 21.724C576.67 21.4893 577.161 21.372 577.716 21.372C578.974 21.372 579.849 21.868 580.34 22.86C580.628 22.4013 581.012 22.0387 581.492 21.772C581.982 21.5053 582.51 21.372 583.076 21.372C584.068 21.372 584.846 21.6707 585.412 22.268C585.977 22.8653 586.26 23.756 586.26 24.94V29.5H584.564V25.116C584.564 23.58 583.977 22.812 582.804 22.812C582.206 22.812 581.716 23.036 581.332 23.484C580.958 23.932 580.772 24.572 580.772 25.404V29.5H579.076V25.116C579.076 23.58 578.484 22.812 577.3 22.812C576.713 22.812 576.228 23.036 575.844 23.484C575.47 23.932 575.284 24.572 575.284 25.404V29.5H573.588ZM591.956 29.692C591.199 29.692 590.516 29.5213 589.908 29.18C589.311 28.828 588.836 28.3427 588.484 27.724C588.132 27.0947 587.956 26.364 587.956 25.532C587.956 24.7 588.132 23.9747 588.484 23.356C588.847 22.7267 589.332 22.2413 589.94 21.9C590.548 21.548 591.225 21.372 591.972 21.372C592.729 21.372 593.407 21.548 594.004 21.9C594.612 22.2413 595.092 22.7267 595.444 23.356C595.807 23.9747 595.988 24.7 595.988 25.532C595.988 26.364 595.807 27.0947 595.444 27.724C595.092 28.3427 594.612 28.828 594.004 29.18C593.396 29.5213 592.713 29.692 591.956 29.692ZM591.956 28.236C592.361 28.236 592.735 28.1347 593.076 27.932C593.428 27.7293 593.711 27.4307 593.924 27.036C594.137 26.6307 594.244 26.1293 594.244 25.532C594.244 24.9347 594.137 24.4387 593.924 24.044C593.721 23.6387 593.444 23.3347 593.092 23.132C592.751 22.9293 592.377 22.828 591.972 22.828C591.567 22.828 591.188 22.9293 590.836 23.132C590.495 23.3347 590.217 23.6387 590.004 24.044C589.791 24.4387 589.684 24.9347 589.684 25.532C589.684 26.1293 589.791 26.6307 590.004 27.036C590.217 27.4307 590.495 27.7293 590.836 27.932C591.177 28.1347 591.551 28.236 591.956 28.236ZM597.822 29.5V21.564H599.326L599.454 22.956C599.699 22.4653 600.057 22.0813 600.526 21.804C601.006 21.516 601.555 21.372 602.174 21.372C603.134 21.372 603.886 21.6707 604.43 22.268C604.985 22.8653 605.262 23.756 605.262 24.94V29.5H603.582V25.116C603.582 23.58 602.953 22.812 601.694 22.812C601.065 22.812 600.542 23.036 600.126 23.484C599.721 23.932 599.518 24.572 599.518 25.404V29.5H597.822ZM608.22 20.06C607.9 20.06 607.633 19.964 607.42 19.772C607.217 19.5693 607.116 19.3187 607.116 19.02C607.116 18.7213 607.217 18.476 607.42 18.284C607.633 18.0813 607.9 17.98 608.22 17.98C608.54 17.98 608.801 18.0813 609.004 18.284C609.217 18.476 609.324 18.7213 609.324 19.02C609.324 19.3187 609.217 19.5693 609.004 19.772C608.801 19.964 608.54 20.06 608.22 20.06ZM607.372 29.5V21.564H609.068V29.5H607.372ZM613.994 29.692C613.322 29.692 612.768 29.58 612.33 29.356C611.893 29.132 611.568 28.8387 611.354 28.476C611.141 28.1027 611.034 27.6973 611.034 27.26C611.034 26.492 611.333 25.884 611.93 25.436C612.528 24.988 613.381 24.764 614.49 24.764H616.57V24.62C616.57 24.0013 616.4 23.5373 616.058 23.228C615.728 22.9187 615.296 22.764 614.762 22.764C614.293 22.764 613.882 22.8813 613.53 23.116C613.189 23.34 612.981 23.676 612.906 24.124H611.21C611.264 23.548 611.456 23.0573 611.786 22.652C612.128 22.236 612.554 21.9213 613.066 21.708C613.589 21.484 614.16 21.372 614.778 21.372C615.888 21.372 616.746 21.6653 617.354 22.252C617.962 22.828 618.266 23.6173 618.266 24.62V29.5H616.794L616.65 28.14C616.426 28.5773 616.101 28.9453 615.674 29.244C615.248 29.5427 614.688 29.692 613.994 29.692ZM614.33 28.316C614.789 28.316 615.173 28.2093 615.482 27.996C615.802 27.772 616.048 27.4787 616.218 27.116C616.4 26.7533 616.512 26.3533 616.554 25.916H614.666C613.994 25.916 613.514 26.0333 613.226 26.268C612.949 26.5027 612.81 26.796 612.81 27.148C612.81 27.5107 612.944 27.7987 613.21 28.012C613.488 28.2147 613.861 28.316 614.33 28.316ZM620.244 29.5V17.98H621.94V29.5H620.244ZM627.256 29.692C626.253 29.692 625.426 29.4467 624.776 28.956C624.125 28.4653 623.752 27.8147 623.656 27.004H625.368C625.453 27.3667 625.656 27.6813 625.976 27.948C626.296 28.204 626.717 28.332 627.24 28.332C627.752 28.332 628.125 28.2253 628.36 28.012C628.594 27.7987 628.712 27.5533 628.712 27.276C628.712 26.8707 628.546 26.5987 628.216 26.46C627.896 26.3107 627.448 26.1773 626.872 26.06C626.424 25.964 625.976 25.836 625.528 25.676C625.09 25.516 624.722 25.292 624.424 25.004C624.136 24.7053 623.992 24.3053 623.992 23.804C623.992 23.1107 624.258 22.5347 624.792 22.076C625.325 21.6067 626.072 21.372 627.032 21.372C627.917 21.372 628.632 21.5853 629.176 22.012C629.73 22.4387 630.056 23.0413 630.152 23.82H628.52C628.466 23.4787 628.306 23.212 628.04 23.02C627.784 22.828 627.437 22.732 627 22.732C626.573 22.732 626.242 22.8227 626.008 23.004C625.773 23.1747 625.656 23.3987 625.656 23.676C625.656 23.9533 625.816 24.172 626.136 24.332C626.466 24.492 626.898 24.636 627.432 24.764C627.965 24.8813 628.456 25.02 628.904 25.18C629.362 25.3293 629.73 25.5533 630.008 25.852C630.285 26.1507 630.424 26.588 630.424 27.164C630.434 27.8893 630.152 28.492 629.576 28.972C629.01 29.452 628.237 29.692 627.256 29.692Z" fill="#212D3B"/>
<path d="M688.136 29.5V18.3H692.056C692.931 18.3 693.656 18.4493 694.232 18.748C694.808 19.036 695.235 19.436 695.512 19.948C695.8 20.4493 695.944 21.02 695.944 21.66C695.944 22.268 695.805 22.828 695.528 23.34C695.261 23.8413 694.84 24.2413 694.264 24.54C693.688 24.8387 692.952 24.988 692.056 24.988H689.832V29.5H688.136ZM689.832 23.596H691.976C692.776 23.596 693.347 23.4253 693.688 23.084C694.04 22.732 694.216 22.2573 694.216 21.66C694.216 21.0413 694.04 20.5613 693.688 20.22C693.347 19.868 692.776 19.692 691.976 19.692H689.832V23.596ZM697.556 29.5V21.564H699.076L699.22 23.068C699.498 22.5453 699.882 22.1347 700.372 21.836C700.874 21.5267 701.476 21.372 702.18 21.372V23.148H701.716C701.247 23.148 700.826 23.228 700.452 23.388C700.09 23.5373 699.796 23.7987 699.572 24.172C699.359 24.5347 699.252 25.0413 699.252 25.692V29.5H697.556ZM704.595 20.06C704.275 20.06 704.008 19.964 703.795 19.772C703.592 19.5693 703.491 19.3187 703.491 19.02C703.491 18.7213 703.592 18.476 703.795 18.284C704.008 18.0813 704.275 17.98 704.595 17.98C704.915 17.98 705.176 18.0813 705.379 18.284C705.592 18.476 705.699 18.7213 705.699 19.02C705.699 19.3187 705.592 19.5693 705.379 19.772C705.176 19.964 704.915 20.06 704.595 20.06ZM703.747 29.5V21.564H705.443V29.5H703.747ZM711.441 29.692C710.663 29.692 709.964 29.516 709.345 29.164C708.737 28.812 708.257 28.3267 707.905 27.708C707.564 27.0787 707.393 26.3533 707.393 25.532C707.393 24.7107 707.564 23.9907 707.905 23.372C708.257 22.7427 708.737 22.252 709.345 21.9C709.964 21.548 710.663 21.372 711.441 21.372C712.423 21.372 713.244 21.628 713.905 22.14C714.577 22.652 715.009 23.3453 715.201 24.22H713.425C713.319 23.7827 713.084 23.4413 712.721 23.196C712.359 22.9507 711.932 22.828 711.441 22.828C711.025 22.828 710.641 22.9347 710.289 23.148C709.937 23.3507 709.655 23.6547 709.441 24.06C709.228 24.4547 709.121 24.9453 709.121 25.532C709.121 26.1187 709.228 26.6147 709.441 27.02C709.655 27.4147 709.937 27.7187 710.289 27.932C710.641 28.1453 711.025 28.252 711.441 28.252C711.932 28.252 712.359 28.1293 712.721 27.884C713.084 27.6387 713.319 27.292 713.425 26.844H715.201C715.02 27.6973 714.593 28.3853 713.921 28.908C713.249 29.4307 712.423 29.692 711.441 29.692ZM718.001 20.06C717.681 20.06 717.414 19.964 717.201 19.772C716.998 19.5693 716.897 19.3187 716.897 19.02C716.897 18.7213 716.998 18.476 717.201 18.284C717.414 18.0813 717.681 17.98 718.001 17.98C718.321 17.98 718.582 18.0813 718.785 18.284C718.998 18.476 719.105 18.7213 719.105 19.02C719.105 19.3187 718.998 19.5693 718.785 19.772C718.582 19.964 718.321 20.06 718.001 20.06ZM717.153 29.5V21.564H718.849V29.5H717.153ZM721.088 29.5V21.564H722.592L722.72 22.956C722.965 22.4653 723.322 22.0813 723.792 21.804C724.272 21.516 724.821 21.372 725.44 21.372C726.4 21.372 727.152 21.6707 727.696 22.268C728.25 22.8653 728.528 23.756 728.528 24.94V29.5H726.848V25.116C726.848 23.58 726.218 22.812 724.96 22.812C724.33 22.812 723.808 23.036 723.392 23.484C722.986 23.932 722.784 24.572 722.784 25.404V29.5H721.088ZM733.773 27.068C733.357 27.068 732.973 27.02 732.621 26.924L731.933 27.596C732.05 27.6707 732.194 27.7347 732.365 27.788C732.536 27.8413 732.776 27.8893 733.085 27.932C733.394 27.9747 733.816 28.0173 734.349 28.06C735.405 28.156 736.168 28.412 736.637 28.828C737.106 29.2333 737.341 29.7773 737.341 30.46C737.341 30.9293 737.213 31.372 736.957 31.788C736.712 32.2147 736.322 32.556 735.789 32.812C735.266 33.0787 734.594 33.212 733.773 33.212C732.664 33.212 731.762 32.9987 731.069 32.572C730.386 32.156 730.045 31.5213 730.045 30.668C730.045 30.3373 730.13 30.0067 730.301 29.676C730.482 29.356 730.765 29.052 731.149 28.764C730.925 28.668 730.728 28.5667 730.557 28.46C730.397 28.3427 730.253 28.2253 730.125 28.108V27.724L731.501 26.316C730.882 25.7827 730.573 25.084 730.573 24.22C730.573 23.6973 730.696 23.2227 730.941 22.796C731.197 22.3587 731.565 22.012 732.045 21.756C732.525 21.5 733.101 21.372 733.773 21.372C734.221 21.372 734.637 21.436 735.021 21.564H737.981V22.684L736.573 22.764C736.829 23.2013 736.957 23.6867 736.957 24.22C736.957 24.7533 736.829 25.2333 736.573 25.66C736.328 26.0867 735.965 26.428 735.485 26.684C735.016 26.94 734.445 27.068 733.773 27.068ZM733.773 25.74C734.264 25.74 734.658 25.612 734.957 25.356C735.266 25.0893 735.421 24.716 735.421 24.236C735.421 23.7453 735.266 23.372 734.957 23.116C734.658 22.86 734.264 22.732 733.773 22.732C733.272 22.732 732.866 22.86 732.557 23.116C732.258 23.372 732.109 23.7453 732.109 24.236C732.109 24.716 732.258 25.0893 732.557 25.356C732.866 25.612 733.272 25.74 733.773 25.74ZM731.645 30.508C731.645 30.9667 731.848 31.308 732.253 31.532C732.658 31.7667 733.165 31.884 733.773 31.884C734.36 31.884 734.834 31.756 735.197 31.5C735.56 31.2547 735.741 30.924 735.741 30.508C735.741 30.1987 735.618 29.932 735.373 29.708C735.128 29.4947 734.664 29.3613 733.981 29.308C733.469 29.276 733.016 29.228 732.621 29.164C732.248 29.3667 731.992 29.5853 731.853 29.82C731.714 30.0547 731.645 30.284 731.645 30.508Z" fill="#212D3B"/>
<path d="M795.136 29.5V18.3H802.16V19.676H796.832V23.212H801.248V24.572H796.832V29.5H795.136ZM801.916 29.5L806.044 18.3H807.9L811.996 29.5H810.204L809.244 26.764H804.668L803.708 29.5H801.916ZM805.148 25.42H808.764L806.956 20.316L805.148 25.42ZM818.085 29.692C816.976 29.692 816.005 29.4467 815.173 28.956C814.341 28.4653 813.691 27.788 813.221 26.924C812.752 26.0493 812.517 25.0413 812.517 23.9C812.517 22.7587 812.752 21.756 813.221 20.892C813.691 20.0173 814.341 19.3347 815.173 18.844C816.005 18.3533 816.976 18.108 818.085 18.108C819.195 18.108 820.165 18.3533 820.997 18.844C821.829 19.3347 822.475 20.0173 822.933 20.892C823.403 21.756 823.637 22.7587 823.637 23.9C823.637 24.9987 823.419 25.9747 822.981 26.828C822.555 27.6813 821.957 28.3533 821.189 28.844L823.893 31.596H821.749L819.749 29.484C819.227 29.6227 818.672 29.692 818.085 29.692ZM818.085 28.172C818.853 28.172 819.52 28.0013 820.085 27.66C820.661 27.3187 821.109 26.828 821.429 26.188C821.749 25.548 821.909 24.7853 821.909 23.9C821.909 23.0147 821.749 22.252 821.429 21.612C821.109 20.972 820.661 20.4813 820.085 20.14C819.52 19.7987 818.853 19.628 818.085 19.628C817.317 19.628 816.645 19.7987 816.069 20.14C815.493 20.4813 815.045 20.972 814.725 21.612C814.416 22.252 814.261 23.0147 814.261 23.9C814.261 24.7853 814.416 25.548 814.725 26.188C815.045 26.828 815.493 27.3187 816.069 27.66C816.645 28.0013 817.317 28.172 818.085 28.172Z" fill="#212D3B"/>
<path d="M968.952 28.5V18.7H970.744V27.1H975.084V28.5H968.952ZM979.638 28.668C978.966 28.668 978.36 28.514 977.818 28.206C977.286 27.898 976.862 27.4733 976.544 26.932C976.236 26.3813 976.082 25.7467 976.082 25.028C976.082 24.3093 976.241 23.6793 976.558 23.138C976.876 22.5873 977.3 22.158 977.832 21.85C978.374 21.542 978.98 21.388 979.652 21.388C980.315 21.388 980.912 21.542 981.444 21.85C981.986 22.158 982.41 22.5873 982.718 23.138C983.036 23.6793 983.194 24.3093 983.194 25.028C983.194 25.7467 983.036 26.3813 982.718 26.932C982.41 27.4733 981.986 27.898 981.444 28.206C980.903 28.514 980.301 28.668 979.638 28.668ZM979.638 27.114C980.105 27.114 980.511 26.9413 980.856 26.596C981.202 26.2413 981.374 25.7187 981.374 25.028C981.374 24.3373 981.202 23.8193 980.856 23.474C980.511 23.1193 980.11 22.942 979.652 22.942C979.176 22.942 978.766 23.1193 978.42 23.474C978.084 23.8193 977.916 24.3373 977.916 25.028C977.916 25.7187 978.084 26.2413 978.42 26.596C978.766 26.9413 979.172 27.114 979.638 27.114ZM987.299 26.428C986.963 26.428 986.651 26.3907 986.361 26.316L985.843 26.834C986.002 26.918 986.217 26.988 986.487 27.044C986.758 27.1 987.197 27.156 987.803 27.212C988.727 27.296 989.399 27.5153 989.819 27.87C990.239 28.2247 990.449 28.7147 990.449 29.34C990.449 29.7507 990.337 30.138 990.113 30.502C989.889 30.8753 989.544 31.174 989.077 31.398C988.611 31.6313 988.013 31.748 987.285 31.748C986.296 31.748 985.498 31.5613 984.891 31.188C984.285 30.824 983.981 30.2733 983.981 29.536C983.981 28.9107 984.285 28.3693 984.891 27.912C984.705 27.828 984.541 27.7393 984.401 27.646C984.271 27.5527 984.154 27.4547 984.051 27.352V27.03L985.269 25.742C984.728 25.266 984.457 24.6547 984.457 23.908C984.457 23.4413 984.569 23.0167 984.793 22.634C985.027 22.2513 985.353 21.948 985.773 21.724C986.193 21.5 986.702 21.388 987.299 21.388C987.691 21.388 988.055 21.444 988.391 21.556H991.023V22.648L989.833 22.732C990.02 23.0867 990.113 23.4787 990.113 23.908C990.113 24.3747 990.001 24.7993 989.777 25.182C989.553 25.5647 989.227 25.868 988.797 26.092C988.377 26.316 987.878 26.428 987.299 26.428ZM987.299 25.056C987.663 25.056 987.962 24.958 988.195 24.762C988.438 24.566 988.559 24.286 988.559 23.922C988.559 23.558 988.438 23.278 988.195 23.082C987.962 22.886 987.663 22.788 987.299 22.788C986.917 22.788 986.609 22.886 986.375 23.082C986.142 23.278 986.025 23.558 986.025 23.922C986.025 24.286 986.142 24.566 986.375 24.762C986.609 24.958 986.917 25.056 987.299 25.056ZM985.619 29.354C985.619 29.6993 985.778 29.956 986.095 30.124C986.422 30.3013 986.819 30.39 987.285 30.39C987.733 30.39 988.097 30.2967 988.377 30.11C988.657 29.9327 988.797 29.69 988.797 29.382C988.797 29.13 988.704 28.92 988.517 28.752C988.34 28.584 987.981 28.4813 987.439 28.444C987.057 28.416 986.702 28.374 986.375 28.318C986.105 28.4673 985.909 28.6307 985.787 28.808C985.675 28.9853 985.619 29.1673 985.619 29.354ZM995.708 28.5V18.7H997.5V28.5H995.708ZM999.357 28.5V21.556H1000.94L1001.08 22.732C1001.29 22.3213 1001.6 21.9947 1002 21.752C1002.41 21.5093 1002.89 21.388 1003.45 21.388C1004.3 21.388 1004.97 21.6587 1005.45 22.2C1005.92 22.7413 1006.16 23.5347 1006.16 24.58V28.5H1004.37V24.748C1004.37 24.1507 1004.25 23.6933 1004.01 23.376C1003.76 23.0587 1003.38 22.9 1002.87 22.9C1002.37 22.9 1001.95 23.0773 1001.63 23.432C1001.31 23.7867 1001.15 24.2813 1001.15 24.916V28.5H999.357Z" fill="#24C196"/>
<rect x="1035" y="1.5" width="155" height="45" rx="8" fill="#1A896B"/>
<path d="M1075.3 28.668C1074.58 28.668 1073.94 28.5467 1073.39 28.304C1072.84 28.052 1072.41 27.6973 1072.09 27.24C1071.77 26.7733 1071.61 26.2087 1071.6 25.546H1073.49C1073.51 26.0033 1073.67 26.3907 1073.98 26.708C1074.3 27.016 1074.73 27.17 1075.28 27.17C1075.76 27.17 1076.14 27.058 1076.42 26.834C1076.7 26.6007 1076.84 26.2927 1076.84 25.91C1076.84 25.5087 1076.71 25.196 1076.46 24.972C1076.22 24.748 1075.89 24.566 1075.48 24.426C1075.07 24.286 1074.63 24.1367 1074.16 23.978C1073.41 23.7167 1072.83 23.3807 1072.43 22.97C1072.04 22.5593 1071.84 22.0133 1071.84 21.332C1071.83 20.7533 1071.97 20.2587 1072.25 19.848C1072.54 19.428 1072.93 19.106 1073.42 18.882C1073.92 18.6487 1074.49 18.532 1075.13 18.532C1075.78 18.532 1076.36 18.6487 1076.85 18.882C1077.36 19.1153 1077.75 19.442 1078.03 19.862C1078.32 20.282 1078.47 20.7813 1078.49 21.36H1076.57C1076.56 21.0147 1076.43 20.7113 1076.17 20.45C1075.91 20.1793 1075.56 20.044 1075.1 20.044C1074.71 20.0347 1074.38 20.1327 1074.11 20.338C1073.85 20.534 1073.72 20.8233 1073.72 21.206C1073.72 21.5327 1073.82 21.794 1074.02 21.99C1074.23 22.1767 1074.51 22.3353 1074.86 22.466C1075.22 22.5967 1075.62 22.7367 1076.08 22.886C1076.57 23.054 1077.01 23.25 1077.41 23.474C1077.81 23.698 1078.14 23.9967 1078.38 24.37C1078.62 24.734 1078.74 25.2053 1078.74 25.784C1078.74 26.2973 1078.61 26.7733 1078.35 27.212C1078.09 27.6507 1077.7 28.0053 1077.19 28.276C1076.67 28.5373 1076.04 28.668 1075.3 28.668ZM1081.23 20.478C1080.9 20.478 1080.63 20.38 1080.42 20.184C1080.21 19.988 1080.11 19.7407 1080.11 19.442C1080.11 19.1433 1080.21 18.9007 1080.42 18.714C1080.63 18.518 1080.9 18.42 1081.23 18.42C1081.56 18.42 1081.82 18.518 1082.03 18.714C1082.24 18.9007 1082.35 19.1433 1082.35 19.442C1082.35 19.7407 1082.24 19.988 1082.03 20.184C1081.82 20.38 1081.56 20.478 1081.23 20.478ZM1080.33 28.5V21.556H1082.13V28.5H1080.33ZM1086.94 26.428C1086.6 26.428 1086.29 26.3907 1086 26.316L1085.48 26.834C1085.64 26.918 1085.85 26.988 1086.12 27.044C1086.39 27.1 1086.83 27.156 1087.44 27.212C1088.36 27.296 1089.04 27.5153 1089.46 27.87C1089.88 28.2247 1090.09 28.7147 1090.09 29.34C1090.09 29.7507 1089.97 30.138 1089.75 30.502C1089.53 30.8753 1089.18 31.174 1088.71 31.398C1088.25 31.6313 1087.65 31.748 1086.92 31.748C1085.93 31.748 1085.13 31.5613 1084.53 31.188C1083.92 30.824 1083.62 30.2733 1083.62 29.536C1083.62 28.9107 1083.92 28.3693 1084.53 27.912C1084.34 27.828 1084.18 27.7393 1084.04 27.646C1083.91 27.5527 1083.79 27.4547 1083.69 27.352V27.03L1084.91 25.742C1084.36 25.266 1084.09 24.6547 1084.09 23.908C1084.09 23.4413 1084.21 23.0167 1084.43 22.634C1084.66 22.2513 1084.99 21.948 1085.41 21.724C1085.83 21.5 1086.34 21.388 1086.94 21.388C1087.33 21.388 1087.69 21.444 1088.03 21.556H1090.66V22.648L1089.47 22.732C1089.66 23.0867 1089.75 23.4787 1089.75 23.908C1089.75 24.3747 1089.64 24.7993 1089.41 25.182C1089.19 25.5647 1088.86 25.868 1088.43 26.092C1088.01 26.316 1087.51 26.428 1086.94 26.428ZM1086.94 25.056C1087.3 25.056 1087.6 24.958 1087.83 24.762C1088.07 24.566 1088.2 24.286 1088.2 23.922C1088.2 23.558 1088.07 23.278 1087.83 23.082C1087.6 22.886 1087.3 22.788 1086.94 22.788C1086.55 22.788 1086.25 22.886 1086.01 23.082C1085.78 23.278 1085.66 23.558 1085.66 23.922C1085.66 24.286 1085.78 24.566 1086.01 24.762C1086.25 24.958 1086.55 25.056 1086.94 25.056ZM1085.26 29.354C1085.26 29.6993 1085.41 29.956 1085.73 30.124C1086.06 30.3013 1086.46 30.39 1086.92 30.39C1087.37 30.39 1087.73 30.2967 1088.01 30.11C1088.29 29.9327 1088.43 29.69 1088.43 29.382C1088.43 29.13 1088.34 28.92 1088.15 28.752C1087.98 28.584 1087.62 28.4813 1087.08 28.444C1086.69 28.416 1086.34 28.374 1086.01 28.318C1085.74 28.4673 1085.55 28.6307 1085.42 28.808C1085.31 28.9853 1085.26 29.1673 1085.26 29.354ZM1091.97 28.5V21.556H1093.55L1093.69 22.732C1093.9 22.3213 1094.21 21.9947 1094.61 21.752C1095.02 21.5093 1095.5 21.388 1096.05 21.388C1096.91 21.388 1097.58 21.6587 1098.06 22.2C1098.53 22.7413 1098.77 23.5347 1098.77 24.58V28.5H1096.98V24.748C1096.98 24.1507 1096.86 23.6933 1096.61 23.376C1096.37 23.0587 1095.99 22.9 1095.48 22.9C1094.98 22.9 1094.56 23.0773 1094.23 23.432C1093.92 23.7867 1093.76 24.2813 1093.76 24.916V28.5H1091.97ZM1106.42 28.668C1105.56 28.668 1104.88 28.3973 1104.41 27.856C1103.94 27.3147 1103.71 26.5213 1103.71 25.476V21.556H1105.49V25.308C1105.49 25.9053 1105.61 26.3627 1105.85 26.68C1106.09 26.9973 1106.48 27.156 1107 27.156C1107.49 27.156 1107.9 26.9787 1108.22 26.624C1108.54 26.2693 1108.71 25.7747 1108.71 25.14V21.556H1110.5V28.5H1108.92L1108.78 27.324C1108.56 27.7347 1108.25 28.0613 1107.84 28.304C1107.44 28.5467 1106.97 28.668 1106.42 28.668ZM1112.34 31.58V21.556H1113.93L1114.13 22.55C1114.35 22.242 1114.65 21.9713 1115.01 21.738C1115.39 21.5047 1115.87 21.388 1116.45 21.388C1117.11 21.388 1117.69 21.5467 1118.2 21.864C1118.72 22.1813 1119.12 22.6153 1119.42 23.166C1119.72 23.7167 1119.87 24.342 1119.87 25.042C1119.87 25.742 1119.72 26.3673 1119.42 26.918C1119.12 27.4593 1118.72 27.8887 1118.2 28.206C1117.69 28.514 1117.11 28.668 1116.45 28.668C1115.93 28.668 1115.47 28.57 1115.08 28.374C1114.69 28.178 1114.37 27.9027 1114.13 27.548V31.58H1112.34ZM1116.08 27.1C1116.65 27.1 1117.12 26.9087 1117.49 26.526C1117.86 26.1433 1118.05 25.6487 1118.05 25.042C1118.05 24.4353 1117.86 23.936 1117.49 23.544C1117.12 23.152 1116.65 22.956 1116.08 22.956C1115.5 22.956 1115.02 23.152 1114.65 23.544C1114.28 23.9267 1114.1 24.4213 1114.1 25.028C1114.1 25.6347 1114.28 26.134 1114.65 26.526C1115.02 26.9087 1115.5 27.1 1116.08 27.1ZM1124.85 28.5V18.7H1126.64L1131.25 25.602V18.7H1133.04V28.5H1131.25L1126.64 21.612V28.5H1124.85ZM1138.23 28.668C1137.56 28.668 1136.95 28.514 1136.41 28.206C1135.88 27.898 1135.45 27.4733 1135.13 26.932C1134.83 26.3813 1134.67 25.7467 1134.67 25.028C1134.67 24.3093 1134.83 23.6793 1135.15 23.138C1135.47 22.5873 1135.89 22.158 1136.42 21.85C1136.96 21.542 1137.57 21.388 1138.24 21.388C1138.9 21.388 1139.5 21.542 1140.03 21.85C1140.58 22.158 1141 22.5873 1141.31 23.138C1141.63 23.6793 1141.78 24.3093 1141.78 25.028C1141.78 25.7467 1141.63 26.3813 1141.31 26.932C1141 27.4733 1140.58 27.898 1140.03 28.206C1139.49 28.514 1138.89 28.668 1138.23 28.668ZM1138.23 27.114C1138.69 27.114 1139.1 26.9413 1139.45 26.596C1139.79 26.2413 1139.96 25.7187 1139.96 25.028C1139.96 24.3373 1139.79 23.8193 1139.45 23.474C1139.1 23.1193 1138.7 22.942 1138.24 22.942C1137.77 22.942 1137.36 23.1193 1137.01 23.474C1136.67 23.8193 1136.51 24.3373 1136.51 25.028C1136.51 25.7187 1136.67 26.2413 1137.01 26.596C1137.36 26.9413 1137.76 27.114 1138.23 27.114ZM1144.5 28.5L1142.47 21.556H1144.25L1145.45 26.554L1146.85 21.556H1148.84L1150.24 26.554L1151.46 21.556H1153.23L1151.19 28.5H1149.33L1147.84 23.306L1146.36 28.5H1144.5Z" fill="white"/>
</svg>
