<svg width="19" height="13" viewBox="0 0 19 13" fill="none" xmlns="http://www.w3.org/2000/svg">
<path id="Vector" d="M0.5 0.717167C0.501647 0.527495 0.59621 0.345957 0.763262 0.211768C0.930313 0.0775796 1.15644 0.0015128 1.3928 0H17.6072C18.1004 0 18.5 0.321389 18.5 0.717167V12.2828C18.4984 12.4725 18.4038 12.654 18.2367 12.7882C18.0697 12.9224 17.8436 12.9985 17.6072 13H1.3928C1.15593 12.9998 0.928847 12.9242 0.76144 12.7897C0.594034 12.6552 0.5 12.4729 0.5 12.2828V0.717167ZM8.2598 3.91083C8.20563 3.88183 8.14268 3.86517 8.07765 3.8626C8.01261 3.86004 7.94792 3.87168 7.89048 3.89629C7.83304 3.92089 7.78499 3.95754 7.75144 4.00233C7.7179 4.04711 7.70012 4.09836 7.7 4.15061V8.84939C7.70012 8.90164 7.7179 8.95289 7.75144 8.99767C7.78499 9.04246 7.83304 9.07911 7.89048 9.10371C7.94792 9.12832 8.01261 9.13996 8.07765 9.1374C8.14268 9.13483 8.20563 9.11817 8.2598 9.08917L12.6509 6.7405C12.7003 6.71413 12.7408 6.67838 12.7688 6.63642C12.7968 6.59446 12.8115 6.5476 12.8115 6.5C12.8115 6.4524 12.7968 6.40554 12.7688 6.36358C12.7408 6.32162 12.7003 6.28587 12.6509 6.2595L8.2589 3.91083H8.2598Z" fill="#686E72"/>
</svg>
