<svg width="24" height="24" viewBox="0 0 24 24" fill="none" xmlns="http://www.w3.org/2000/svg">
<g clip-path="url(#clip0_16_1165)">
<path d="M20.0831 15.1999L21.2851 15.9209C21.3593 15.9653 21.4206 16.0282 21.4633 16.1034C21.5059 16.1786 21.5283 16.2635 21.5283 16.3499C21.5283 16.4364 21.5059 16.5213 21.4633 16.5965C21.4206 16.6717 21.3593 16.7346 21.2851 16.7789L12.5151 22.0409C12.3596 22.1344 12.1815 22.1838 12.0001 22.1838C11.8187 22.1838 11.6406 22.1344 11.4851 22.0409L2.7151 16.7789C2.64095 16.7346 2.57956 16.6717 2.53695 16.5965C2.49433 16.5213 2.47192 16.4364 2.47192 16.3499C2.47192 16.2635 2.49433 16.1786 2.53695 16.1034C2.57956 16.0282 2.64095 15.9653 2.7151 15.9209L3.9171 15.1999L12.0001 20.0499L20.0831 15.1999V15.1999ZM20.0831 10.4999L21.2851 11.2209C21.3593 11.2653 21.4206 11.3282 21.4633 11.4034C21.5059 11.4786 21.5283 11.5635 21.5283 11.6499C21.5283 11.7364 21.5059 11.8213 21.4633 11.8965C21.4206 11.9717 21.3593 12.0346 21.2851 12.0789L12.0001 17.6499L2.7151 12.0789C2.64095 12.0346 2.57956 11.9717 2.53695 11.8965C2.49433 11.8213 2.47192 11.7364 2.47192 11.6499C2.47192 11.5635 2.49433 11.4786 2.53695 11.4034C2.57956 11.3282 2.64095 11.2653 2.7151 11.2209L3.9171 10.4999L12.0001 15.3499L20.0831 10.4999ZM12.5141 1.30895L21.2851 6.57095C21.3593 6.61534 21.4206 6.6782 21.4633 6.75338C21.5059 6.82857 21.5283 6.91352 21.5283 6.99995C21.5283 7.08637 21.5059 7.17132 21.4633 7.24651C21.4206 7.3217 21.3593 7.38455 21.2851 7.42895L12.0001 12.9999L2.7151 7.42895C2.64095 7.38455 2.57956 7.3217 2.53695 7.24651C2.49433 7.17132 2.47192 7.08637 2.47192 6.99995C2.47192 6.91352 2.49433 6.82857 2.53695 6.75338C2.57956 6.6782 2.64095 6.61534 2.7151 6.57095L11.4851 1.30895C11.6406 1.2155 11.8187 1.16614 12.0001 1.16614C12.1815 1.16614 12.3596 1.2155 12.5151 1.30895H12.5141ZM12.0001 3.33195L5.8871 6.99995L12.0001 10.6679L18.1131 6.99995L12.0001 3.33195Z" fill="white"/>
</g>
<defs>
<clipPath id="clip0_16_1165">
<rect width="24" height="24" fill="white"/>
</clipPath>
</defs>
</svg>
