<svg width="24" height="24" viewBox="0 0 24 24" fill="none" xmlns="http://www.w3.org/2000/svg">
<g id="zap">
<path id="Union" fill-rule="evenodd" clip-rule="evenodd" d="M3.77184 8.71384C3.82228 8.46232 4.00868 8.03801 4.39047 7.5088C4.7617 6.99424 5.28109 6.43149 5.92807 5.90158C7.22504 4.8393 8.98054 3.95185 11.0041 3.79963C15.023 3.49731 17.3586 6.11828 18.5937 7.93945L17.062 7.5455C16.5838 7.42251 16.0957 7.70747 15.9718 8.18197C15.8478 8.65646 16.135 9.14082 16.6132 9.26381L19.24 9.93943C20.3252 10.2185 21.4151 9.50342 21.5812 8.40323L21.99 5.69486C22.0632 5.21009 21.7265 4.75824 21.2379 4.68563C20.7494 4.61301 20.2941 4.94713 20.2209 5.4319L20.0075 6.84508C18.6216 4.83377 15.7817 1.66005 10.8689 2.02961C8.40001 2.21533 6.30498 3.29121 4.78933 4.5326C4.03 5.15453 3.40254 5.82871 2.93591 6.47552C2.47984 7.10769 2.13734 7.76922 2.01738 8.36735C1.92095 8.8481 2.23554 9.31539 2.72002 9.41107C3.2045 9.50675 3.67541 9.19459 3.77184 8.71384ZM19.6095 16.4912C19.9913 15.962 20.1777 15.5377 20.2282 15.2862C20.3246 14.8054 20.7955 14.4932 21.28 14.5889C21.7645 14.6846 22.079 15.1519 21.9826 15.6326C21.8627 16.2308 21.5202 16.8923 21.0641 17.5245C20.5975 18.1713 19.97 18.8455 19.2107 19.4674C17.695 20.7088 15.6 21.7847 13.1311 21.9704C8.21833 22.34 5.37843 19.1662 3.99245 17.1549L3.77912 18.5681C3.70594 19.0529 3.25059 19.387 2.76205 19.3144C2.27352 19.2418 1.93681 18.7899 2.00999 18.3051L2.41884 15.5968C2.58492 14.4966 3.67479 13.7815 4.76003 14.0606L7.38684 14.7362C7.86502 14.8592 8.15219 15.3435 8.02824 15.818C7.9043 16.2925 7.41618 16.5775 6.938 16.4545L5.40633 16.0606C6.64142 17.8817 8.97703 20.5027 12.9959 20.2004C15.0195 20.0482 16.775 19.1607 18.0719 18.0984C18.7189 17.5685 19.2383 17.0058 19.6095 16.4912ZM8 9C7.44772 9 7 8.55228 7 8C7 7.44771 7.44772 7 8 7C8.55229 7 9 7.44771 9 8C9 8.55228 8.55229 9 8 9ZM11.5105 9.38496C11.635 8.87168 12.365 8.87168 12.4895 9.38496L12.8319 10.7973C12.8764 10.9805 13.0195 11.1236 13.2027 11.1681L14.615 11.5105C15.1283 11.635 15.1283 12.365 14.615 12.4895L13.2027 12.8319C13.0195 12.8764 12.8764 13.0195 12.8319 13.2027L12.4895 14.615C12.365 15.1283 11.635 15.1283 11.5105 14.615L11.1681 13.2027C11.1236 13.0195 10.9805 12.8764 10.7973 12.8319L9.38496 12.4895C9.35288 12.4817 9.32281 12.4715 9.29474 12.4593C8.87368 12.2761 8.90376 11.6272 9.38496 11.5105L10.7973 11.1681C10.9805 11.1236 11.1236 10.9805 11.1681 10.7973L11.5105 9.38496ZM15 16C15 16.5523 15.4477 17 16 17C16.5523 17 17 16.5523 17 16C17 15.4477 16.5523 15 16 15C15.4477 15 15 15.4477 15 16Z" fill="white"/>
</g>
</svg>
